<?xml version="1.0" encoding="UTF-8"?><svg id="Layer_1" xmlns="http://www.w3.org/2000/svg" viewBox="0 0 348.86828 523.30242"><defs><style>.cls-1,.cls-2{fill:#fff;}.cls-3{fill:#f8da27;}.cls-3,.cls-4,.cls-5,.cls-2,.cls-6{fill-rule:evenodd;}.cls-4{fill:#58585a;}.cls-5{fill:#ed1c24;}</style></defs><path class="cls-2" d="M58.14471,0h232.57886c32.12496,0,58.14471,26.01962,58.14471,58.14471V465.15771c0,32.1251-26.01975,58.14471-58.14471,58.14471H58.14471c-32.12495,0-58.14471-26.01962-58.14471-58.14471V58.14471C0,26.01962,26.01976,0,58.14471,0Z"/><path class="cls-6" d="M58.14471,29.07236h232.57886c15.9898,0,29.07236,13.08256,29.07236,29.07236V465.15771c0,15.9898-13.08256,29.07236-29.07236,29.07236H58.14471c-15.9898,0-29.07236-13.08256-29.07236-29.07236V58.14471c0-15.9898,13.08256-29.07236,29.07236-29.07236Z"/><g id="g44"><path id="path4" class="cls-5" d="M134.50892,160.64563c39.54333-20.88223,81.75261-25.32531,116.40854-17.3281,79.08667,18.6607,85.30708,78.198,43.09788,139.51264-19.10517,27.99159-47.54095,55.09423-82.19688,71.97759-56.42703,27.99159-110.18826,29.32418-145.73285,7.99775-35.5446-21.32697-43.98641-57.75997-31.54586-96.4145,13.32922-39.98821,49.76242-80.86428,99.96917-105.74539h0Z"/><path id="path6" class="cls-1" d="M239.36544,222.40448h0v5.33147c.44433,2.22154,.88867,3.99888,1.33287,6.22041,.88867,3.10994,2.66587,5.33147,4.44307,7.55301,1.33287,2.22154,3.55441,3.55468,5.33174,4.88727,2.66587,.8884,4.88741,1.77734,7.10895,1.33314,1.7772,0,3.11021-.4442,3.99874-1.33314,.44433-.4442,.88867-1.33314,1.33287-2.66574,.44433-1.77734,0-3.99888-.44433-6.66461,0-.8884-.44433-1.33314-.44433-2.22154,0-.4442-.44433-1.33314-.44433-2.22154-1.33287-3.55468-3.11021-6.66461-5.33174-9.33035-2.22154-2.22154-4.44307-3.55468-7.10895-4.44307s-4.88741-.8884-6.66461,0c-.88867,.4442-2.22154,1.33314-2.66587,2.66574l-.44406,.88894Zm-1.33287-43.54235c13.77356-4.88727,27.10278-3.99888,38.6548,1.77734,11.99636,5.77621,21.77104,16.8839,26.65845,30.65732,3.11021,7.55301,3.99874,15.55076,3.55441,23.10377-.44433,7.55301-2.66587,15.10656-6.22028,21.77117,0,.4442-.44433,.8884-.88867,1.33314s-.44433,.8884-.88867,1.33314c-5.33174,8.88615-11.10769,15.55076-16.88363,20.43803-5.77594,4.88727-11.55202,7.99775-17.32796,10.21929-14.21789,5.33147-27.99131,3.99888-39.54333-1.33314-12.44055-6.22041-22.21537-16.8839-27.10278-30.65732-2.66587-7.55301-3.99874-15.10656-3.99874-22.21537,.44433-7.55301,2.22154-14.66236,5.33174-20.88223,2.66587-4.88727,6.22028-10.66349,11.55202-15.99496,4.44307-4.88727,9.77482-9.33035,15.99509-13.32922h0c1.33287-.8884,3.11021-2.22154,4.88741-3.10994,2.66574-1.77788,4.44294-2.66682,6.22014-3.11102h0Z"/><path id="path8" class="cls-1" d="M174.05232,204.18744l23.54824-8.88615c2.22154-.8884,4.44307,.4442,5.33174,2.66574v.4442l33.32306,88.86149c.44433,.4442,.44433,.8884,.44433,1.77734,0,1.33314-.44433,2.66574-1.33287,3.10994l-11.10769,11.10769c-.44433,.4442-.88867,.8884-1.33287,.8884l-19.10517,7.10881c-1.33287,.4442-2.66587,.4442-3.55441-.4442h0l-21.77104-14.66236,3.99874,11.10769c.44433,.4442,.44433,1.33314,.44433,2.22154s-.44433,2.22154-1.33287,2.66574l-11.10769,11.10769c-.44433,.4442-.8886,.8884-1.33294,.8884h0l-23.54831,8.88615c-2.22154,.8884-4.44307-.4442-5.33168-2.66574l-33.76739-89.74989c-.44433-1.77734,0-3.55468,1.33294-4.44307l10.66335-10.66349c.44433-.4442,.8886-.8884,1.33294-.8884l20.43817-7.55301c1.33294-.4442,2.66587-.4442,3.55447,.4442h0l19.99383,12.88502-3.55447-9.77455c-.44433-1.33314,0-3.10994,.8886-4.44307l10.66335-11.10769c1.3326-.44366,1.77693-.8884,2.22127-.8884h0Z"/><path id="path10" class="cls-1" d="M94.52125,351.25363c-9.33048,.8884-17.32796-.8884-23.99257-4.88727-9.33048-5.33147-16.43936-15.10656-20.88244-27.54684l-18.6609-49.76222c-.44433-1.77734,0-3.55468,1.33294-4.44307l10.66335-10.66349c.44433-.4442,.8886-.8884,1.33294-.8884h0l23.54831-8.88615c2.22154-.8884,4.44307,.4442,5.33168,2.66574l19.10523,50.65116c.8886,3.10994,2.66587,5.77621,4.88741,7.55301,1.33294,1.33314,3.55447,2.22154,6.22028,2.66574h1.33294c0-.8884,0-1.77734-.44433-2.66574-.44433-1.33314-.44433-2.66574-1.33294-4.44307l-19.10523-50.65116c-.44433-1.77734,0-3.55468,1.33294-4.44307l10.21908-10.21929c.44433-.4442,.8886-.8884,1.7772-1.33314l23.54831-8.88615c2.22154-.8884,4.44307,.4442,5.33168,2.66574l18.6609,50.20696c3.11014,7.55301,4.44307,15.10656,3.99874,22.21537,0,7.10881-1.7772,13.32922-4.88741,19.10544-2.66587,4.44307-7.55321,9.33035-12.44062,14.21762-.8886,.8884-2.22154,2.22154-3.11014,3.10994h0c-1.7772,2.22154-3.99874,3.99888-6.22028,5.33147-8.44181,4.44307-17.7723,7.99775-27.54705,9.33089h0Z"/><polygon id="polygon12" class="cls-6" points="202.48797 306.82289 170.05352 285.49591 178.93973 309.04443 178.93973 309.04443 178.93973 309.04443 167.83198 319.70737 144.28367 328.59352 110.96061 238.84363 121.62403 228.18015 142.50647 220.62714 172.71939 240.17677 164.72184 218.8498 175.38519 207.74211 198.93357 199.30016 232.70082 289.05059 221.59314 299.71354 202.48797 306.82289"/><path id="path14" class="cls-6" d="M239.80977,182.86101c25.76978-9.33035,51.09536,4.88727,60.42584,29.76838,5.33174,14.21762,4.44307,29.76838-2.22154,41.76501-.44433,.8884-.88867,1.33314-1.33287,2.22154-10.66335,17.7723-21.77104,24.88111-31.99019,28.87998-26.65845,9.77455-52.42822-4.88727-61.75871-29.76838-5.33174-14.21762-4.88741-27.99159,1.33287-39.98767,4.44307-8.88615,13.77356-19.99383,25.76978-27.99159h0c2.66587-2.22154,6.22041-3.99888,9.77482-4.88727Zm-4.44307,38.65453h0c1.7772-5.77621,7.10895-7.55301,14.21789-5.77621s12.44055,8.44195,15.55076,15.99496c.44433,1.33314,.88867,3.10994,1.33287,4.88727,1.33287,6.22041,.88867,10.66349-1.7772,13.32922-3.11021,3.10994-8.88615,3.10994-15.10643,.4442-5.33174-3.10994-9.33048-8.44195-11.99636-14.66236-1.7772-4.88673-2.66587-9.774-2.22154-14.21708h0Z"/><polygon id="polygon16" class="cls-6" points="161.16737 261.5032 178.93973 309.04443 155.39136 317.93057 121.62403 228.18015 142.50647 220.62714 192.71315 253.06125 175.38519 207.74211 198.93357 199.30016 232.70082 289.05059 213.15132 296.1594 161.16737 261.5032"/><polygon id="polygon18" class="cls-2" points="154.94709 253.506 174.94092 307.26709 157.16863 313.9317 125.62277 229.95749 142.06213 223.73707 198.48923 261.05901 179.38393 209.96365 197.15623 203.29904 228.70208 287.27325 213.59566 292.60473 154.94709 253.506"/><polygon id="polygon20" class="cls-3" points="182.49414 210.85205 195.82336 205.96477 225.59201 285.94011 214.03999 290.38319 150.50402 248.17398 172.27505 305.93395 158.50156 310.82122 128.73291 231.29062 141.61787 226.40281 202.93231 266.39048 182.49414 210.85205"/><path id="path22" class="cls-6" d="M239.80977,182.86101c25.76978-9.33035,51.09536,4.88727,60.42584,29.76838,9.33048,24.88111-.44433,52.42849-26.21411,62.20304-25.76978,9.33035-51.09536-4.88727-60.42584-29.76838-9.33048-25.32585,.44433-52.87269,26.21411-62.20304Zm8.44181,22.65957c-12.88489,4.88727-15.10643,18.2165-10.66335,30.21312,4.44307,11.99608,14.66209,20.43803,27.99131,15.55076,12.88489-4.88727,15.10643-18.2165,10.66335-30.21312-4.88727-11.99608-15.10629-20.43803-27.99131-15.55076Z"/><path id="path24" class="cls-2" d="M240.69844,185.52674c23.99257-8.88615,47.54095,4.44307,56.4271,27.99159,8.44181,23.10377-.44433,49.31802-24.43691,58.20417-23.99257,8.88615-47.54095-4.88727-56.4271-27.99159-8.44181-23.10377,.44433-49.31802,24.43691-58.20417Zm6.66461,16.8839c-14.66209,5.33147-17.7723,20.43803-12.44055,34.21146,4.88741,13.77342,16.88363,22.65957,31.99019,17.3281,14.66209-5.33147,17.7723-20.43803,12.44055-33.76726-5.33174-13.77396-17.3281-23.10431-31.99019-17.7723Z"/><path id="path26" class="cls-3" d="M246.47438,200.6333c15.10643-5.77621,28.87998,3.55468,34.65593,18.6607,5.77594,15.10602,1.33287,31.10152-13.77356,36.43299s-28.87998-3.55468-34.65593-18.6607-1.33287-31.10152,13.77356-36.43299Zm-4.88741-12.88502c22.65971-8.44195,45.31941,3.99888,53.76123,26.65845,8.44181,22.65957-.44433,47.09648-23.10404,55.09423-22.65971,8.44195-45.31941-3.99888-53.76123-26.65845-8.44168-22.65957,.44447-47.09648,23.10404-55.09423Z"/><path id="path28" class="cls-6" d="M91.85545,347.25476c-18.6609,.8884-31.54586-10.66349-38.65473-30.21312l-18.6609-49.76222,10.66335-11.10769,23.54831-8.88615,19.10523,50.65116c2.66587,6.66461,7.10895,11.99608,14.66216,12.44083,2.22154,0,4.88741,0,5.77601-3.10994,0-3.10994-.44433-6.66461-1.7772-9.33035l-19.10523-50.65116,11.10769-11.10769h0l23.54831-8.88615,18.6609,50.20696c5.33168,14.66236,5.33168,27.54684-.44433,37.76613-2.66587,4.88727-9.33048,10.66349-15.10643,16.43916h0c-8.44195,9.774-21.32684,15.10602-33.32313,15.55022h0Z"/><path id="path30" class="cls-6" d="M122.95697,330.81506h0l-4.88741,2.22154h-.88867l-4.88741,1.77734v-.4442c-23.54831,6.22041-39.54333-6.22041-47.98522-28.87998l-18.6609-49.76222,23.54831-8.88615,19.10523,50.65116c2.66587,6.66461,7.10895,11.99608,14.66216,12.44083,2.22154,0,4.44307-.4442,6.66461-.8884,2.22154-.8884,3.99874-2.22154,5.77601-3.55468,5.33168-4.88727,4.88741-12.44083,2.66587-18.6607l-19.10523-50.65116,23.54831-8.88615,18.6609,50.20696c7.99755,23.54743,3.55447,42.65286-18.21656,53.31581h0Z"/><path id="path32" class="cls-2" d="M118.95816,329.48246h0l-2.22154,.8884h-.8886l-2.22154,.8884h0c-23.54831,7.55301-39.09907-3.99888-47.09662-26.21425l-17.32796-46.65228,17.7723-6.66461,17.7723,47.54068c3.11014,7.55301,8.44181,14.21762,17.32796,14.66236,2.66587,0,5.33168-.4442,7.55321-1.33314,2.66587-.8884,4.88741-2.22154,6.66461-3.99888,6.22028-6.22041,6.22028-14.66236,3.55447-22.21537l-17.7723-47.54068,17.7723-6.66461,17.7723,47.09648c8.44188,22.21591,3.99881,40.43241-18.6609,50.2075h0Z"/><path id="path34" class="cls-3" d="M52.31204,259.72587l13.77356-4.88727,16.8837,45.76388c5.77601,15.10656,17.7723,18.2165,27.54705,14.66236,10.21908-3.99888,17.32796-14.21762,11.55202-29.32418l-16.8837-45.76388,13.77356-4.88727,16.8837,45.31914c6.66461,18.2165,6.66461,37.76613-19.5495,47.98542h-.88874c-25.76984,9.33035-39.54333-5.33147-46.65228-23.99271l-16.43936-44.87549Z"/><path id="path36" class="cls-4" d="M168.27631,219.294l8.44181-8.44195,4.88734,12.88502-8.44181,8.44195-4.88734-12.88502Zm6.22028,17.3281l8.44188-8.44195,1.7772,4.88727-8.44181,8.44195-1.77727-4.88727Z"/><path id="path38" class="cls-4" d="M90.96678,248.61818l8.44181-8.44195,4.88741,12.88502-8.44181,8.44195-4.88741-12.88502Zm6.22034,16.8839l8.44181-8.44195,1.7772,4.88727-8.44181,8.44195-1.7772-4.88727Z"/><path id="path40" class="cls-4" d="M48.75757,297.0478l8.44181-8.44195,4.88741,12.88502-8.44181,8.44195-4.88741-12.88502Zm6.66461,16.8839l8.44181-8.44195h0l.44433,.4442c.44433,1.33314,.8886,2.66574,1.7772,3.99888l-8.44181,8.44195-2.22154-4.44307Z"/><path id="path42" class="cls-4" d="M258.91507,217.07246l8.44181-8.44195c3.11021,2.66574,5.77594,6.22041,7.55328,10.21929l-8.44181,8.44195c-1.77734-4.44307-4.44321-7.99775-7.55328-10.21929Zm9.33035,13.77342l8.44181-8.44195,1.33287,5.33147-7.99748,7.99775h0c-.4442-1.3326-1.33287-3.10994-1.7772-4.88727h0Z"/></g></svg>