<?xml version="1.0" encoding="utf-8"?>
<!-- Generator: Adobe Illustrator 26.3.1, SVG Export Plug-In . SVG Version: 6.00 Build 0)  -->
<svg version="1.1"
	 id="svg2" xmlns:dc="http://purl.org/dc/elements/1.1/" xmlns:svg="http://www.w3.org/2000/svg" xmlns:cc="http://creativecommons.org/ns#" xmlns:rdf="http://www.w3.org/1999/02/22-rdf-syntax-ns#"
	 xmlns="http://www.w3.org/2000/svg" xmlns:xlink="http://www.w3.org/1999/xlink" x="0px" y="0px" viewBox="0 0 3362 2882"
	 style="enable-background:new 0 0 3362 2882;" xml:space="preserve">
<style type="text/css">
	.st0{fill-rule:evenodd;clip-rule:evenodd;fill:#FFFFFF;}
	.st1{fill-rule:evenodd;clip-rule:evenodd;fill:#FF5555;}
	.st2{fill:#FF5555;}
	.st3{fill:#FFFFFF;}
	.st4{fill-rule:evenodd;clip-rule:evenodd;}
	.st5{fill-rule:evenodd;clip-rule:evenodd;fill:#5555FF;}
	.st6{fill-rule:evenodd;clip-rule:evenodd;fill:#FFAA00;}
	.st7{fill-rule:evenodd;clip-rule:evenodd;fill:#55AA55;}
	.st8{fill:#FFAA00;}
	.st9{fill:#55AA55;}
	.st10{fill:#5555FF;}
	.st11{fill-rule:evenodd;clip-rule:evenodd;fill:#5555FD;}
	.st12{fill:#5555FD;}
	.st13{fill-rule:evenodd;clip-rule:evenodd;fill:#00AA00;}
	.st14{fill-rule:evenodd;clip-rule:evenodd;fill:#ED1C24;}
	.st15{fill-rule:evenodd;clip-rule:evenodd;fill:#F8DA27;}
	.st16{fill-rule:evenodd;clip-rule:evenodd;fill:#58585A;}
</style>
<g>
	<path class="st0" d="M281,0.3h160c22.1,0,40,17.9,40,40v280c0,22.1-17.9,40-40,40H281c-22.1,0-40-17.9-40-40v-280
		C241,18.2,258.9,0.3,281,0.3z"/>
	<path class="st1" d="M281,20.3h160c11,0,20,9,20,20v280c0,11-9,20-20,20H281c-11,0-20-9-20-20v-280C261,29.3,270,20.3,281,20.3z"/>
	
		<ellipse transform="matrix(0.7071 -0.7071 0.7071 0.7071 -21.7456 308.0539)" class="st0" cx="361" cy="180.3" rx="126.5" ry="63.2"/>
	<polygon class="st1" points="353,120.3 333,140.3 333,164.3 353,144.3 353,240.3 373,240.3 373,120.3 	"/>
	<polygon class="st0" points="281,30.3 271,40.3 271,52.3 281,42.3 281,90.3 291,90.3 291,30.3 	"/>
	<polygon class="st0" points="441,330.3 451,320.3 451,308.3 441,318.3 441,270.3 431,270.3 431,330.3 	"/>
	<path class="st0" d="M41,0.3h160c22.1,0,40,17.9,40,40v280c0,22.1-17.9,40-40,40H41c-22.1,0-40-17.9-40-40v-280
		C1,18.2,18.9,0.3,41,0.3z"/>
	<path class="st1" d="M41,20.3h160c11,0,20,9,20,20v280c0,11-9,20-20,20H41c-11,0-20-9-20-20v-280C21,29.3,30,20.3,41,20.3z"/>
	
		<ellipse transform="matrix(0.7071 -0.7071 0.7071 0.7071 -92.0399 138.3501)" class="st0" cx="121" cy="180.3" rx="126.5" ry="63.2"/>
	<path class="st1" d="M121,120.3c-22.1,0-40,17.9-40,40v40c0,22.1,17.9,40,40,40s40-17.9,40-40v-40C161,138.2,143.1,120.3,121,120.3
		z M121,140.3c11,0,20,9,20,20v40c0,11-9,20-20,20s-20-9-20-20v-40C101,149.3,110,140.3,121,140.3z"/>
	<path class="st0" d="M51,30.3c-11,0-20,9-20,20v20c0,11,9,20,20,20s20-9,20-20v-20C71,39.3,62,30.3,51,30.3z M51,40.3
		c5.5,0,10,4.5,10,10v20c0,5.5-4.5,10-10,10s-10-4.5-10-10v-20C41,44.8,45.5,40.3,51,40.3z"/>
	<path class="st0" d="M191,270.3c-11,0-20,9-20,20v20c0,11,9,20,20,20s20-9,20-20v-20C211,279.3,202,270.3,191,270.3z M191,280.3
		c5.5,0,10,4.5,10,10v20c0,5.5-4.5,10-10,10s-10-4.5-10-10v-20C181,284.8,185.5,280.3,191,280.3z"/>
	<path class="st0" d="M1721,0.3h160c22.1,0,40,17.9,40,40v280c0,22.1-17.9,40-40,40h-160c-22.1,0-40-17.9-40-40v-280
		C1681,18.2,1698.9,0.3,1721,0.3z"/>
	<path class="st1" d="M1721,20.3h160c11,0,20,9,20,20v280c0,11-9,20-20,20h-160c-11,0-20-9-20-20v-280
		C1701,29.3,1710,20.3,1721,20.3z"/>
	
		<ellipse transform="matrix(0.7071 -0.7071 0.7071 0.7071 399.9492 1326.2471)" class="st0" cx="1800.9" cy="180.3" rx="126.5" ry="63.2"/>
	<polygon class="st1" points="1767,120.3 1767,160.3 1787,160.3 1787,140.3 1827,140.3 1787,240.3 1807,240.3 1847,140.3 
		1847,120.3 1787,120.3 	"/>
	<polygon class="st0" points="1711,30.3 1711,50.3 1721,50.3 1721,40.3 1741,40.3 1721,90.3 1731,90.3 1751,40.3 1751,30.3 
		1721,30.3 	"/>
	<polygon class="st0" points="1891,330.3 1891,310.3 1881,310.3 1881,320.3 1861,320.3 1881,270.3 1871,270.3 1851,320.3 
		1851,330.3 1881,330.3 	"/>
	<path class="st0" d="M521,0.3h160c22.1,0,40,17.9,40,40v280c0,22.1-17.9,40-40,40H521c-22.1,0-40-17.9-40-40v-280
		C481,18.2,498.9,0.3,521,0.3z"/>
	<path class="st1" d="M521,20.3h160c11,0,20,9,20,20v280c0,11-9,20-20,20H521c-11,0-20-9-20-20v-280C501,29.3,510,20.3,521,20.3z"/>
	
		<ellipse transform="matrix(0.7071 -0.7071 0.7071 0.7071 48.5486 477.7577)" class="st0" cx="601" cy="180.3" rx="126.5" ry="63.2"/>
	<path class="st2" d="M597,120.3c-22.2,0-40,17.8-40,40v4h20v-4c0-11.1,8.9-20,20-20s20,8.9,20,20c0,4.5-3.7,13.4-7.6,16.4
		c-21.2,16.7-21,13.9-52.4,35.6v28h40h40v-20v-8h-20v8h-20h-16c24.8-17.4,26.6-17,46-34.4c6.2-5.6,10-16.6,10-25.6
		C637,138.1,619.2,120.3,597,120.3z"/>
	<path class="st3" d="M531,30.3c-11.1,0-20,8.9-20,20v2h10v-2c0-5.5,4.5-10,10-10s10,4.5,10,10c0,2.3-1.9,6.7-3.8,8.2
		c-10.6,8.3-10.5,7-26.2,17.8v14h20h20v-10v-4h-10v4h-10h-8c12.4-8.7,13.3-8.5,23-17.2c3.1-2.8,5-8.3,5-12.8
		C551,39.2,542.1,30.3,531,30.3z"/>
	<path class="st3" d="M671,330.3c11.1,0,20-8.9,20-20v-2h-10v2c0,5.5-4.5,10-10,10s-10-4.5-10-10c0-2.3,1.9-6.7,3.8-8.2
		c10.6-8.3,10.5-7,26.2-17.8v-14h-20h-20v10v4h10v-4h10h8c-12.4,8.7-13.3,8.5-23,17.2c-3.1,2.8-5,8.3-5,12.8
		C651,321.4,659.9,330.3,671,330.3z"/>
	<path class="st0" d="M761,0.3h160c22.1,0,40,17.9,40,40v280c0,22.1-17.9,40-40,40H761c-22.1,0-40-17.9-40-40v-280
		C721,18.2,738.9,0.3,761,0.3z"/>
	<path class="st1" d="M761,20.3h160c11,0,20,9,20,20v280c0,11-9,20-20,20H761c-11,0-20-9-20-20v-280C741,29.3,750,20.3,761,20.3z"/>
	
		<ellipse transform="matrix(0.7071 -0.7071 0.7071 0.7071 118.8429 647.4614)" class="st0" cx="841" cy="180.3" rx="126.5" ry="63.2"/>
	<path class="st2" d="M841,120.3c-16.6,0-30,13.4-30,30h20c0-5.5,4.5-10,10-10s10,4.5,10,10s-4.5,10-10,10h-12v20h12
		c11.1,0,20,8.9,20,20s-8.9,20-20,20s-20-8.9-20-20h-20c0,22.2,17.8,40,40,40s40-17.8,40-40c0-13.2-6.4-24.7-16.1-32
		c3.8-5,6.1-11.2,6.1-18C871,133.7,857.6,120.3,841,120.3z"/>
	<path class="st3" d="M771,30.3c-8.3,0-15,6.7-15,15h10c0-2.8,2.2-5,5-5s5,2.2,5,5s-2.2,5-5,5h-6v10h6c5.5,0,10,4.5,10,10
		s-4.5,10-10,10s-10-4.5-10-10h-10c0,11.1,8.9,20,20,20s20-8.9,20-20c0-6.6-3.2-12.4-8.1-16c1.9-2.5,3.1-5.6,3.1-9
		C786,37,779.3,30.3,771,30.3z"/>
	<path class="st3" d="M911,330.3c8.3,0,15-6.7,15-15h-10c0,2.8-2.2,5-5,5s-5-2.2-5-5s2.2-5,5-5h6v-10h-6c-5.5,0-10-4.5-10-10
		s4.5-10,10-10s10,4.5,10,10h10c0-11.1-8.9-20-20-20s-20,8.9-20,20c0,6.6,3.2,12.4,8.1,16c-1.9,2.5-3.1,5.6-3.1,9
		C896,323.6,902.7,330.3,911,330.3z"/>
	<path class="st0" d="M1001,0.3h160c22.1,0,40,17.9,40,40v280c0,22.1-17.9,40-40,40h-160c-22.1,0-40-17.9-40-40v-280
		C961,18.2,978.9,0.3,1001,0.3z"/>
	<path class="st1" d="M1001,20.3h160c11,0,20,9,20,20v280c0,11-9,20-20,20h-160c-11,0-20-9-20-20v-280C981,29.3,990,20.3,1001,20.3z
		"/>
	
		<ellipse transform="matrix(0.7071 -0.7071 0.7071 0.7071 189.1371 817.1652)" class="st0" cx="1081" cy="180.3" rx="126.5" ry="63.2"/>
	<polygon class="st2" points="1076.2,120.3 1037,200.3 1037,220.3 1085,220.3 1085,240.3 1105,240.3 1105,220.3 1117,220.3 
		1117,200.3 1105,200.3 1105,160.3 1085,160.3 1085,200.3 1057.8,200.3 1097,120.3 	"/>
	<polygon class="st3" points="1010.2,30.3 990.6,70.3 990.6,80.3 1014.6,80.3 1014.6,90.3 1024.6,90.3 1024.6,80.3 1030.6,80.3 
		1030.6,70.3 1024.6,70.3 1024.6,50.3 1014.6,50.3 1014.6,70.3 1001,70.3 1020.6,30.3 	"/>
	<polygon class="st3" points="1151,330.3 1170.6,290.3 1170.6,280.3 1146.6,280.3 1146.6,270.3 1136.6,270.3 1136.6,280.3 
		1130.6,280.3 1130.6,290.3 1136.6,290.3 1136.6,310.3 1146.6,310.3 1146.6,290.3 1160.2,290.3 1140.6,330.3 	"/>
	<path class="st0" d="M1241,0.3h160c22.1,0,40,17.9,40,40v280c0,22.1-17.9,40-40,40h-160c-22.1,0-40-17.9-40-40v-280
		C1201,18.2,1218.9,0.3,1241,0.3z"/>
	<path class="st1" d="M1241,20.3h160c11,0,20,9,20,20v280c0,11-9,20-20,20h-160c-11,0-20-9-20-20v-280
		C1221,29.3,1230,20.3,1241,20.3z"/>
	
		<ellipse transform="matrix(0.7071 -0.7071 0.7071 0.7071 259.3607 986.8397)" class="st0" cx="1320.9" cy="180.3" rx="126.5" ry="63.2"/>
	<path class="st2" d="M1285,120.3v40v20h40c11.1,0,20,8.9,20,20s-8.9,20-20,20s-20-8.9-20-20h-20c0,22.2,17.8,40,40,40
		s40-17.8,40-40s-17.8-40-40-40h-20v-20h20h36v-20h-36h-20H1285z"/>
	<path class="st3" d="M1231,30.3v20v10h20c5.5,0,10,4.5,10,10s-4.5,10-10,10s-10-4.5-10-10h-10c0,11.1,8.9,20,20,20s20-8.9,20-20
		s-8.9-20-20-20h-10v-10h10h18v-10h-18h-10C1241,30.3,1231,30.3,1231,30.3z"/>
	<path class="st3" d="M1411,330.3v-20v-10h-20c-5.5,0-10-4.5-10-10s4.5-10,10-10s10,4.5,10,10h10c0-11.1-8.9-20-20-20s-20,8.9-20,20
		s8.9,20,20,20h10v10h-10h-18v10h18h10H1411z"/>
	<path class="st0" d="M1481,0.3h160c22.1,0,40,17.9,40,40v280c0,22.1-17.9,40-40,40h-160c-22.1,0-40-17.9-40-40v-280
		C1441,18.2,1458.9,0.3,1481,0.3z"/>
	<path class="st1" d="M1481,20.3h160c11,0,20,9,20,20v280c0,11-9,20-20,20h-160c-11,0-20-9-20-20v-280
		C1461,29.3,1470,20.3,1481,20.3z"/>
	
		<ellipse transform="matrix(0.7071 -0.7071 0.7071 0.7071 329.655 1156.5435)" class="st0" cx="1560.9" cy="180.3" rx="126.5" ry="63.2"/>
	<path class="st1" d="M1561,120.3c-22.1,0-40,17.9-40,40v40c0,22.1,17.9,40,40,40s40-17.9,40-40s-17.9-40-40-40
		c-7.3,0-14.1,2-20,5.4v-5.4c0-11,9-20,20-20c7.8,0,14.5,4.6,17.8,11.1l18-9C1590.2,129.3,1576.7,120.3,1561,120.3z M1561,180.3
		c11,0,20,9,20,20s-9,20-20,20s-20-9-20-20S1550,180.3,1561,180.3z M1541,244.3v8h40v-8H1541z"/>
	<path class="st0" d="M1491,30.3c-11,0-20,9-20,20v20c0,11,9,20,20,20s20-9,20-20s-9-20-20-20c-3.6,0-7.1,1-10,2.7v-2.7
		c0-5.5,4.5-10,10-10c3.9,0,7.2,2.3,8.9,5.6l9-4.5C1505.6,34.8,1498.8,30.3,1491,30.3z M1491,60.3c5.5,0,10,4.5,10,10s-4.5,10-10,10
		s-10-4.5-10-10S1485.5,60.3,1491,60.3z"/>
	<path class="st0" d="M1631,330.3c11,0,20-9,20-20v-20c0-11-9-20-20-20s-20,9-20,20s9,20,20,20c3.6,0,7.1-1,10-2.7v2.7
		c0,5.5-4.5,10-10,10c-3.9,0-7.2-2.3-8.9-5.6l-9,4.5C1616.4,325.8,1623.2,330.3,1631,330.3z M1631,300.3c-5.5,0-10-4.5-10-10
		s4.5-10,10-10s10,4.5,10,10S1636.5,300.3,1631,300.3z"/>
	<path class="st0" d="M1961,0.3h160c22.1,0,40,17.9,40,40v280c0,22.1-17.9,40-40,40h-160c-22.1,0-40-17.9-40-40v-280
		C1921,18.2,1938.9,0.3,1961,0.3z"/>
	<path class="st1" d="M1961,20.3h160c11,0,20,9,20,20v280c0,11-9,20-20,20h-160c-11,0-20-9-20-20v-280
		C1941,29.3,1950,20.3,1961,20.3z"/>
	
		<ellipse transform="matrix(0.7071 -0.7071 0.7071 0.7071 470.2435 1495.9509)" class="st0" cx="2040.9" cy="180.3" rx="126.5" ry="63.2"/>
	<path class="st2" d="M2041,120.3c-16.6,0-30,13.4-30,30c0,6.8,2.3,13,6.1,18c-9.8,7.3-16.1,18.8-16.1,32c0,22.2,17.8,40,40,40
		s40-17.8,40-40c0-13.2-6.4-24.7-16.1-32c3.8-5,6.1-11.2,6.1-18C2071,133.7,2057.6,120.3,2041,120.3z M2041,140.3
		c5.5,0,10,4.5,10,10s-4.5,10-10,10s-10-4.5-10-10S2035.5,140.3,2041,140.3z M2039,180.3c0.7-0.1,1.3,0,2,0c11.1,0,20,8.9,20,20
		s-8.9,20-20,20c-11.1,0-20-8.9-20-20C2021,189.9,2028.9,181.3,2039,180.3z"/>
	<path class="st3" d="M1971,30.3c-8.3,0-15,6.7-15,15c0,3.4,1.2,6.5,3.1,9c-4.9,3.6-8.1,9.4-8.1,16c0,11.1,8.9,20,20,20
		s20-8.9,20-20c0-6.6-3.2-12.4-8.1-16c1.9-2.5,3.1-5.6,3.1-9C1986,37,1979.3,30.3,1971,30.3z M1971,40.3c2.8,0,5,2.2,5,5s-2.2,5-5,5
		s-5-2.2-5-5S1968.2,40.3,1971,40.3z M1970,60.3c0.3,0,0.7,0,1,0c5.5,0,10,4.5,10,10s-4.5,10-10,10s-10-4.5-10-10
		C1961,65.1,1964.9,60.8,1970,60.3z"/>
	<path class="st3" d="M2111,330.3c-8.3,0-15-6.7-15-15c0-3.4,1.2-6.5,3.1-9c-4.9-3.6-8.1-9.4-8.1-16c0-11.1,8.9-20,20-20
		s20,8.9,20,20c0,6.6-3.2,12.4-8.1,16c1.9,2.5,3.1,5.6,3.1,9C2126,323.6,2119.3,330.3,2111,330.3z M2111,320.3c2.8,0,5-2.2,5-5
		s-2.2-5-5-5s-5,2.2-5,5S2108.2,320.3,2111,320.3z M2110,300.3c0.3,0,0.7,0,1,0c5.5,0,10-4.5,10-10s-4.5-10-10-10s-10,4.5-10,10
		C2101,295.5,2104.9,299.8,2110,300.3z"/>
	<path class="st0" d="M2201,0.3h160c22.1,0,40,17.9,40,40v280c0,22.1-17.9,40-40,40h-160c-22.1,0-40-17.9-40-40v-280
		C2161,18.2,2178.9,0.3,2201,0.3z"/>
	<path class="st1" d="M2201,20.3h160c11,0,20,9,20,20v280c0,11-9,20-20,20h-160c-11,0-20-9-20-20v-280
		C2181,29.3,2190,20.3,2201,20.3z"/>
	
		<ellipse transform="matrix(0.7071 -0.7071 0.7071 0.7071 540.5377 1665.6547)" class="st0" cx="2280.9" cy="180.3" rx="126.5" ry="63.2"/>
	<path class="st1" d="M2281,120.3c-22.1,0-40,17.9-40,40s17.9,40,40,40c7.3,0,14.1-2,20-5.4v5.4c0,11-9,20-20,20
		c-7.8,0-14.5-4.6-17.8-11.1l-18,9c6.6,13.1,20.1,22.1,35.8,22.1c22.1,0,40-17.9,40-40v-40C2321,138.2,2303.1,120.3,2281,120.3z
		 M2281,140.3c11,0,20,9,20,20s-9,20-20,20s-20-9-20-20S2270,140.3,2281,140.3z M2261,244.3v8h40v-8H2261z"/>
	<path class="st0" d="M2211,90.3c11,0,20-9,20-20v-20c0-11-9-20-20-20s-20,9-20,20s9,20,20,20c3.6,0,7.1-1,10-2.7v2.7
		c0,5.5-4.5,10-10,10c-3.9,0-7.2-2.3-8.9-5.6l-9,4.5C2196.4,85.8,2203.2,90.3,2211,90.3z M2211,60.3c-5.5,0-10-4.5-10-10
		s4.5-10,10-10s10,4.5,10,10S2216.5,60.3,2211,60.3z"/>
	<path class="st0" d="M2351,270.3c-11,0-20,9-20,20v20c0,11,9,20,20,20s20-9,20-20s-9-20-20-20c-3.6,0-7.1,1-10,2.7v-2.7
		c0-5.5,4.5-10,10-10c3.9,0,7.2,2.3,8.9,5.6l9-4.5C2365.6,274.8,2358.8,270.3,2351,270.3z M2351,300.3c5.5,0,10,4.5,10,10
		s-4.5,10-10,10s-10-4.5-10-10S2345.5,300.3,2351,300.3z"/>
	<path class="st0" d="M2441,0.3h160c22.1,0,40,17.9,40,40v280c0,22.1-17.9,40-40,40h-160c-22.1,0-40-17.9-40-40v-280
		C2401,18.2,2418.9,0.3,2441,0.3z"/>
	<path class="st1" d="M2441,20.3h160c11,0,20,9,20,20v280c0,11-9,20-20,20h-160c-11,0-20-9-20-20v-280
		C2421,29.3,2430,20.3,2441,20.3z"/>
	
		<ellipse transform="matrix(0.7071 -0.7071 0.7071 0.7071 610.8319 1835.3585)" class="st0" cx="2520.9" cy="180.3" rx="126.5" ry="63.2"/>
	<path class="st1" d="M2521.1,120.3c-15.4,0-30.8,5.8-42.5,17.5c-23.5,23.4-23.5,61.4-0.1,84.9s61.4,23.5,84.9,0.1
		s23.5-61.4,0.1-84.9C2551.8,126.2,2536.5,120.3,2521.1,120.3L2521.1,120.3z M2521,140.3c7,0,14,1.8,20.2,5.5l-54.8,54.8
		c-9-15.4-6.9-35.5,6.2-48.6C2500.6,144.1,2510.8,140.3,2521,140.3z M2555.5,159.9c9.1,15.4,7,35.6-6.2,48.8s-33.3,15.1-48.6,6
		L2555.5,159.9z"/>
	<path class="st0" d="M2461.1,30.3c-7.7,0-15.4,2.9-21.2,8.7c-11.7,11.7-11.8,30.7-0.1,42.4s30.7,11.8,42.4,0.1s11.8-30.7,0.1-42.4
		C2476.4,33.2,2468.7,30.3,2461.1,30.3L2461.1,30.3z M2461,40.3c3.5,0,7,0.9,10.1,2.7l-27.4,27.4c-4.5-7.7-3.5-17.7,3.1-24.3
		C2450.8,42.2,2455.9,40.3,2461,40.3z M2478.2,50.1c4.6,7.7,3.5,17.8-3.1,24.4s-16.6,7.6-24.3,3L2478.2,50.1L2478.2,50.1z"/>
	<path class="st0" d="M2581.1,270.3c-7.7,0-15.4,2.9-21.2,8.7c-11.7,11.7-11.8,30.7-0.1,42.4c11.7,11.7,30.7,11.8,42.4,0.1
		c11.7-11.7,11.8-30.7,0.1-42.4C2596.4,273.2,2588.7,270.3,2581.1,270.3L2581.1,270.3z M2581,280.3c3.5,0,7,0.9,10.1,2.7l-27.4,27.4
		c-4.5-7.7-3.5-17.7,3.1-24.3C2570.8,282.2,2575.9,280.3,2581,280.3z M2598.2,290.1c4.6,7.7,3.5,17.8-3.1,24.4s-16.6,7.6-24.3,3
		L2598.2,290.1L2598.2,290.1z"/>
	<path class="st0" d="M2681,0.3h160c22.1,0,40,17.9,40,40v280c0,22.1-17.9,40-40,40h-160c-22.1,0-40-17.9-40-40v-280
		C2641,18.2,2658.9,0.3,2681,0.3z"/>
	<path class="st1" d="M2681,20.3h160c11,0,20,9,20,20v280c0,11-9,20-20,20h-160c-11,0-20-9-20-20v-280
		C2661,29.3,2670,20.3,2681,20.3z"/>
	
		<ellipse transform="matrix(0.7071 -0.7071 0.7071 0.7071 681.1262 2005.0621)" class="st0" cx="2760.9" cy="180.3" rx="126.5" ry="63.2"/>
	<path class="st2" d="M2761,115.3l10,10l-40,40c-10,10-10,30,0,40l20-20l40-40l10,10v-40H2761z"/>
	<path class="st2" d="M2761,245.3l-10-10l40-40c10-10,10-30,0-40l-20,20l-40,40l-10-10v40H2761z"/>
	<path class="st3" d="M2691,30.3l5,5l-20,20c-5,5-5,15,0,20l10-10l20-20l5,5v-20C2711,30.3,2691,30.3,2691,30.3z"/>
	<path class="st3" d="M2691,95.3l-5-5l20-20c5-5,5-15,0-20l-10,10l-20,20l-5-5v20H2691z"/>
	<path class="st3" d="M2831,265.3l5,5l-20,20c-5,5-5,15,0,20l10-10l20-20l5,5v-20H2831z"/>
	<path class="st3" d="M2831,330.3l-5-5l20-20c5-5,5-15,0-20l-10,10l-20,20l-5-5v20H2831z"/>
	<path class="st0" d="M521,1440.3h160c22.1,0,40,17.9,40,40v280c0,22.1-17.9,40-40,40H521c-22.1,0-40-17.9-40-40v-280
		C481,1458.2,498.9,1440.3,521,1440.3z"/>
	<path class="st4" d="M521,1460.3h160c11,0,20,9,20,20v280c0,11-9,20-20,20H521c-11,0-20-9-20-20v-280
		C501,1469.3,510,1460.3,521,1460.3z"/>
	
		<ellipse transform="matrix(0.7071 -0.7071 0.7071 0.7071 -969.6896 899.5233)" class="st0" cx="601" cy="1620.3" rx="126.5" ry="63.2"/>
	<polygon class="st3" points="560.7,1470.3 541,1510.3 541,1520.3 565,1520.3 565,1530.3 575,1530.3 575,1520.3 581,1520.3 
		581,1510.3 575,1510.3 575,1490.3 565,1490.3 565,1510.3 551.4,1510.3 571,1470.3 	"/>
	<polygon class="st0" points="515,1490.3 515,1500.3 505,1500.3 505,1510.3 515,1510.3 515,1520.3 525,1520.3 525,1510.3 
		535,1510.3 535,1500.3 525,1500.3 525,1490.3 	"/>
	<polygon class="st3" points="641.4,1770.3 661,1730.3 661,1720.3 637,1720.3 637,1710.3 627,1710.3 627,1720.3 621,1720.3 
		621,1730.3 627,1730.3 627,1750.3 637,1750.3 637,1730.3 650.7,1730.3 631,1770.3 	"/>
	<polygon class="st0" points="687,1750.3 687,1740.3 697,1740.3 697,1730.3 687,1730.3 687,1720.3 677,1720.3 677,1730.3 
		667,1730.3 667,1740.3 677,1740.3 677,1750.3 	"/>
	<path class="st0" d="M563.9,1570.3h40c5.5,0,8.8,4,7.4,9l-20.6,71.9c-1.4,5-7.1,9-12.6,9h-40c-5.5,0-8.8-4-7.4-9l20.6-71.9
		C552.7,1574.3,558.4,1570.3,563.9,1570.3z"/>
	<path class="st1" d="M571,1580.3h20c5.5,0,8.8,4,7.4,9l-14.8,51.9c-1.4,5-7.1,9-12.6,9h-20c-5.5,0-8.8-4-7.4-9l14.8-51.9
		C559.9,1584.3,565.6,1580.3,571,1580.3z"/>
	<path class="st0" d="M603.9,1540.3h40c5.5,0,8.8,4,7.4,9l-20.6,71.9c-1.4,5-7.1,9-12.6,9h-40c-5.5,0-8.8-4-7.4-9l20.6-71.9
		C592.7,1544.3,598.4,1540.3,603.9,1540.3z"/>
	<path class="st5" d="M611,1550.3h20c5.5,0,8.8,4,7.4,9l-14.8,51.9c-1.4,5-7.1,9-12.6,9h-20c-5.5,0-8.8-4-7.4-9l14.8-51.9
		C599.9,1554.3,605.6,1550.3,611,1550.3z"/>
	<path class="st0" d="M593.9,1600.3h40c5.5,0,8.8,4,7.4,9l-20.6,71.9c-1.4,5-7.1,9-12.6,9h-40c-5.5,0-8.8-4-7.4-9l20.6-71.9
		C582.7,1604.3,588.4,1600.3,593.9,1600.3z"/>
	<path class="st6" d="M601,1610.3h20c5.5,0,8.8,4,7.4,9l-14.8,51.9c-1.4,5-7.1,9-12.6,9h-20c-5.5,0-8.8-4-7.4-9l14.8-51.9
		C589.9,1614.3,595.6,1610.3,601,1610.3z"/>
	<path class="st0" d="M633.9,1570.3h40c5.5,0,8.8,4,7.4,9l-20.6,71.9c-1.4,5-7.1,9-12.6,9h-40c-5.5,0-8.8-4-7.4-9l20.6-71.9
		C622.7,1574.3,628.4,1570.3,633.9,1570.3z"/>
	<path class="st7" d="M641,1580.3h20c5.5,0,8.8,4,7.4,9l-14.8,51.9c-1.4,5-7.1,9-12.6,9h-20c-5.5,0-8.8-4-7.4-9l14.8-51.9
		C629.9,1584.3,635.6,1580.3,641,1580.3z"/>
	<path class="st0" d="M41,1440.3h160c22.1,0,40,17.9,40,40v280c0,22.1-17.9,40-40,40H41c-22.1,0-40-17.9-40-40v-280
		C1,1458.2,18.9,1440.3,41,1440.3z"/>
	<path class="st4" d="M41,1460.3h160c11,0,20,9,20,20v280c0,11-9,20-20,20H41c-11,0-20-9-20-20v-280C21,1469.3,30,1460.3,41,1460.3z
		"/>
	<path class="st0" d="M281,360.3h160c22.1,0,40,17.9,40,40v280c0,22.1-17.9,40-40,40H281c-22.1,0-40-17.9-40-40v-280
		C241,378.2,258.9,360.3,281,360.3z"/>
	<path class="st6" d="M281,380.3h160c11,0,20,9,20,20v280c0,11-9,20-20,20H281c-11,0-20-9-20-20v-280C261,389.3,270,380.3,281,380.3
		z"/>
	
		<ellipse transform="matrix(0.7071 -0.7071 0.7071 0.7071 -276.3013 413.4952)" class="st0" cx="361" cy="540.3" rx="126.5" ry="63.2"/>
	<polygon class="st6" points="353,480.3 333,500.3 333,524.3 353,504.3 353,600.3 373,600.3 373,480.3 	"/>
	<polygon class="st0" points="281,390.3 271,400.3 271,412.3 281,402.3 281,450.3 291,450.3 291,390.3 	"/>
	<polygon class="st0" points="441,690.3 451,680.3 451,668.3 441,678.3 441,630.3 431,630.3 431,690.3 	"/>
	<path class="st0" d="M41,360.3h160c22.1,0,40,17.9,40,40v280c0,22.1-17.9,40-40,40H41c-22.1,0-40-17.9-40-40v-280
		C1,378.2,18.9,360.3,41,360.3z"/>
	<path class="st6" d="M41,380.3h160c11,0,20,9,20,20v280c0,11-9,20-20,20H41c-11,0-20-9-20-20v-280C21,389.3,30,380.3,41,380.3z"/>
	
		<ellipse transform="matrix(0.7071 -0.7071 0.7071 0.7071 -346.5956 243.7915)" class="st0" cx="121" cy="540.3" rx="126.5" ry="63.2"/>
	<path class="st6" d="M121,480.3c-22.1,0-40,17.9-40,40v40c0,22.1,17.9,40,40,40s40-17.9,40-40v-40C161,498.2,143.1,480.3,121,480.3
		z M121,500.3c11,0,20,9,20,20v40c0,11-9,20-20,20s-20-9-20-20v-40C101,509.3,110,500.3,121,500.3z"/>
	<path class="st0" d="M51,390.3c-11,0-20,9-20,20v20c0,11,9,20,20,20s20-9,20-20v-20C71,399.3,62,390.3,51,390.3z M51,400.3
		c5.5,0,10,4.5,10,10v20c0,5.5-4.5,10-10,10s-10-4.5-10-10v-20C41,404.8,45.5,400.3,51,400.3z"/>
	<path class="st0" d="M191,630.3c-11,0-20,9-20,20v20c0,11,9,20,20,20s20-9,20-20v-20C211,639.3,202,630.3,191,630.3z M191,640.3
		c5.5,0,10,4.5,10,10v20c0,5.5-4.5,10-10,10s-10-4.5-10-10v-20C181,644.8,185.5,640.3,191,640.3z"/>
	<path class="st0" d="M1721,360.3h160c22.1,0,40,17.9,40,40v280c0,22.1-17.9,40-40,40h-160c-22.1,0-40-17.9-40-40v-280
		C1681,378.2,1698.9,360.3,1721,360.3z"/>
	<path class="st6" d="M1721,380.3h160c11,0,20,9,20,20v280c0,11-9,20-20,20h-160c-11,0-20-9-20-20v-280
		C1701,389.3,1710,380.3,1721,380.3z"/>
	
		<ellipse transform="matrix(0.7071 -0.7071 0.7071 0.7071 145.3936 1431.6886)" class="st0" cx="1800.9" cy="540.3" rx="126.5" ry="63.2"/>
	<polygon class="st6" points="1767,480.3 1767,520.3 1787,520.3 1787,500.3 1827,500.3 1787,600.3 1807,600.3 1847,500.3 
		1847,480.3 1787,480.3 	"/>
	<polygon class="st0" points="1711,390.3 1711,410.3 1721,410.3 1721,400.3 1741,400.3 1721,450.3 1731,450.3 1751,400.3 
		1751,390.3 1721,390.3 	"/>
	<polygon class="st0" points="1891,690.3 1891,670.3 1881,670.3 1881,680.3 1861,680.3 1881,630.3 1871,630.3 1851,680.3 
		1851,690.3 1881,690.3 	"/>
	<path class="st0" d="M521,360.3h160c22.1,0,40,17.9,40,40v280c0,22.1-17.9,40-40,40H521c-22.1,0-40-17.9-40-40v-280
		C481,378.2,498.9,360.3,521,360.3z"/>
	<path class="st6" d="M521,380.3h160c11,0,20,9,20,20v280c0,11-9,20-20,20H521c-11,0-20-9-20-20v-280C501,389.3,510,380.3,521,380.3
		z"/>
	
		<ellipse transform="matrix(0.7071 -0.7071 0.7071 0.7071 -206.007 583.1989)" class="st0" cx="601" cy="540.3" rx="126.5" ry="63.2"/>
	<path class="st8" d="M597,480.3c-22.2,0-40,17.8-40,40v4h20v-4c0-11.1,8.9-20,20-20s20,8.9,20,20c0,4.5-3.7,13.4-7.6,16.4
		c-21.2,16.7-21,13.9-52.4,35.6v28h40h40v-20v-8h-20v8h-20h-16c24.8-17.4,26.6-17,46-34.4c6.2-5.6,10-16.6,10-25.6
		C637,498.1,619.2,480.3,597,480.3z"/>
	<path class="st3" d="M531,390.3c-11.1,0-20,8.9-20,20v2h10v-2c0-5.5,4.5-10,10-10s10,4.5,10,10c0,2.3-1.9,6.7-3.8,8.2
		c-10.6,8.3-10.5,7-26.2,17.8v14h20h20v-10v-4h-10v4h-10h-8c12.4-8.7,13.3-8.5,23-17.2c3.1-2.8,5-8.3,5-12.8
		C551,399.2,542.1,390.3,531,390.3z"/>
	<path class="st3" d="M671,690.3c11.1,0,20-8.9,20-20v-2h-10v2c0,5.5-4.5,10-10,10s-10-4.5-10-10c0-2.3,1.9-6.7,3.8-8.2
		c10.6-8.3,10.5-7,26.2-17.8v-14h-20h-20v10v4h10v-4h10h8c-12.4,8.7-13.3,8.5-23,17.2c-3.1,2.8-5,8.3-5,12.8
		C651,681.4,659.9,690.3,671,690.3z"/>
	<path class="st0" d="M761,360.3h160c22.1,0,40,17.9,40,40v280c0,22.1-17.9,40-40,40H761c-22.1,0-40-17.9-40-40v-280
		C721,378.2,738.9,360.3,761,360.3z"/>
	<path class="st6" d="M761,380.3h160c11,0,20,9,20,20v280c0,11-9,20-20,20H761c-11,0-20-9-20-20v-280C741,389.3,750,380.3,761,380.3
		z"/>
	
		<ellipse transform="matrix(0.7071 -0.7071 0.7071 0.7071 -135.7128 752.9028)" class="st0" cx="841" cy="540.3" rx="126.5" ry="63.2"/>
	<path class="st8" d="M841,480.3c-16.6,0-30,13.4-30,30h20c0-5.5,4.5-10,10-10s10,4.5,10,10s-4.5,10-10,10h-12v20h12
		c11.1,0,20,8.9,20,20s-8.9,20-20,20s-20-8.9-20-20h-20c0,22.2,17.8,40,40,40s40-17.8,40-40c0-13.2-6.4-24.7-16.1-32
		c3.8-5,6.1-11.2,6.1-18C871,493.7,857.6,480.3,841,480.3z"/>
	<path class="st3" d="M771,390.3c-8.3,0-15,6.7-15,15h10c0-2.8,2.2-5,5-5s5,2.2,5,5s-2.2,5-5,5h-6v10h6c5.5,0,10,4.5,10,10
		s-4.5,10-10,10s-10-4.5-10-10h-10c0,11.1,8.9,20,20,20s20-8.9,20-20c0-6.6-3.2-12.4-8.1-16c1.9-2.5,3.1-5.6,3.1-9
		C786,397,779.3,390.3,771,390.3z"/>
	<path class="st3" d="M911,690.3c8.3,0,15-6.7,15-15h-10c0,2.8-2.2,5-5,5s-5-2.2-5-5s2.2-5,5-5h6v-10h-6c-5.5,0-10-4.5-10-10
		s4.5-10,10-10s10,4.5,10,10h10c0-11.1-8.9-20-20-20s-20,8.9-20,20c0,6.6,3.2,12.4,8.1,16c-1.9,2.5-3.1,5.6-3.1,9
		C896,683.6,902.7,690.3,911,690.3z"/>
	<path class="st0" d="M1001,360.3h160c22.1,0,40,17.9,40,40v280c0,22.1-17.9,40-40,40h-160c-22.1,0-40-17.9-40-40v-280
		C961,378.2,978.9,360.3,1001,360.3z"/>
	<path class="st6" d="M1001,380.3h160c11,0,20,9,20,20v280c0,11-9,20-20,20h-160c-11,0-20-9-20-20v-280
		C981,389.3,990,380.3,1001,380.3z"/>
	
		<ellipse transform="matrix(0.7071 -0.7071 0.7071 0.7071 -65.4185 922.6066)" class="st0" cx="1081" cy="540.3" rx="126.5" ry="63.2"/>
	<polygon class="st8" points="1076.2,480.3 1037,560.3 1037,580.3 1085,580.3 1085,600.3 1105,600.3 1105,580.3 1117,580.3 
		1117,560.3 1105,560.3 1105,520.3 1085,520.3 1085,560.3 1057.8,560.3 1097,480.3 	"/>
	<polygon class="st3" points="1010.2,390.3 990.6,430.3 990.6,440.3 1014.6,440.3 1014.6,450.3 1024.6,450.3 1024.6,440.3 
		1030.6,440.3 1030.6,430.3 1024.6,430.3 1024.6,410.3 1014.6,410.3 1014.6,430.3 1001,430.3 1020.6,390.3 	"/>
	<polygon class="st3" points="1151,690.3 1170.6,650.3 1170.6,640.3 1146.6,640.3 1146.6,630.3 1136.6,630.3 1136.6,640.3 
		1130.6,640.3 1130.6,650.3 1136.6,650.3 1136.6,670.3 1146.6,670.3 1146.6,650.3 1160.2,650.3 1140.6,690.3 	"/>
	<path class="st0" d="M1241,360.3h160c22.1,0,40,17.9,40,40v280c0,22.1-17.9,40-40,40h-160c-22.1,0-40-17.9-40-40v-280
		C1201,378.2,1218.9,360.3,1241,360.3z"/>
	<path class="st6" d="M1241,380.3h160c11,0,20,9,20,20v280c0,11-9,20-20,20h-160c-11,0-20-9-20-20v-280
		C1221,389.3,1230,380.3,1241,380.3z"/>
	
		<ellipse transform="matrix(0.7071 -0.7071 0.7071 0.7071 4.805 1092.281)" class="st0" cx="1320.9" cy="540.3" rx="126.5" ry="63.2"/>
	<path class="st8" d="M1285,480.3v40v20h40c11.1,0,20,8.9,20,20s-8.9,20-20,20s-20-8.9-20-20h-20c0,22.2,17.8,40,40,40
		s40-17.8,40-40s-17.8-40-40-40h-20v-20h20h36v-20h-36h-20H1285z"/>
	<path class="st3" d="M1231,390.3v20v10h20c5.5,0,10,4.5,10,10s-4.5,10-10,10s-10-4.5-10-10h-10c0,11.1,8.9,20,20,20s20-8.9,20-20
		s-8.9-20-20-20h-10v-10h10h18v-10h-18h-10H1231z"/>
	<path class="st3" d="M1411,690.3v-20v-10h-20c-5.5,0-10-4.5-10-10s4.5-10,10-10s10,4.5,10,10h10c0-11.1-8.9-20-20-20s-20,8.9-20,20
		s8.9,20,20,20h10v10h-10h-18v10h18h10H1411z"/>
	<path class="st0" d="M1481,360.3h160c22.1,0,40,17.9,40,40v280c0,22.1-17.9,40-40,40h-160c-22.1,0-40-17.9-40-40v-280
		C1441,378.2,1458.9,360.3,1481,360.3z"/>
	<path class="st6" d="M1481,380.3h160c11,0,20,9,20,20v280c0,11-9,20-20,20h-160c-11,0-20-9-20-20v-280
		C1461,389.3,1470,380.3,1481,380.3z"/>
	
		<ellipse transform="matrix(0.7071 -0.7071 0.7071 0.7071 75.0993 1261.9847)" class="st0" cx="1560.9" cy="540.3" rx="126.5" ry="63.2"/>
	<path class="st6" d="M1561,480.3c-22.1,0-40,17.9-40,40v40c0,22.1,17.9,40,40,40s40-17.9,40-40s-17.9-40-40-40
		c-7.3,0-14.1,2-20,5.4v-5.4c0-11,9-20,20-20c7.8,0,14.5,4.6,17.8,11.1l18-9C1590.2,489.3,1576.7,480.3,1561,480.3z M1561,540.3
		c11,0,20,9,20,20s-9,20-20,20s-20-9-20-20S1550,540.3,1561,540.3z M1541,604.3v8h40v-8H1541z"/>
	<path class="st0" d="M1491,390.3c-11,0-20,9-20,20v20c0,11,9,20,20,20s20-9,20-20s-9-20-20-20c-3.6,0-7.1,1-10,2.7v-2.7
		c0-5.5,4.5-10,10-10c3.9,0,7.2,2.3,8.9,5.6l9-4.5C1505.6,394.8,1498.8,390.3,1491,390.3z M1491,420.3c5.5,0,10,4.5,10,10
		s-4.5,10-10,10s-10-4.5-10-10S1485.5,420.3,1491,420.3z"/>
	<path class="st0" d="M1631,690.3c11,0,20-9,20-20v-20c0-11-9-20-20-20s-20,9-20,20s9,20,20,20c3.6,0,7.1-1,10-2.7v2.7
		c0,5.5-4.5,10-10,10c-3.9,0-7.2-2.3-8.9-5.6l-9,4.5C1616.4,685.8,1623.2,690.3,1631,690.3z M1631,660.3c-5.5,0-10-4.5-10-10
		s4.5-10,10-10s10,4.5,10,10S1636.5,660.3,1631,660.3z"/>
	<path class="st0" d="M1961,360.3h160c22.1,0,40,17.9,40,40v280c0,22.1-17.9,40-40,40h-160c-22.1,0-40-17.9-40-40v-280
		C1921,378.2,1938.9,360.3,1961,360.3z"/>
	<path class="st6" d="M1961,380.3h160c11,0,20,9,20,20v280c0,11-9,20-20,20h-160c-11,0-20-9-20-20v-280
		C1941,389.3,1950,380.3,1961,380.3z"/>
	
		<ellipse transform="matrix(0.7071 -0.7071 0.7071 0.7071 215.6879 1601.3923)" class="st0" cx="2040.9" cy="540.3" rx="126.5" ry="63.2"/>
	<path class="st8" d="M2041,480.3c-16.6,0-30,13.4-30,30c0,6.8,2.3,13,6.1,18c-9.8,7.3-16.1,18.8-16.1,32c0,22.2,17.8,40,40,40
		s40-17.8,40-40c0-13.2-6.4-24.7-16.1-32c3.8-5,6.1-11.2,6.1-18C2071,493.7,2057.6,480.3,2041,480.3z M2041,500.3
		c5.5,0,10,4.5,10,10s-4.5,10-10,10s-10-4.5-10-10S2035.5,500.3,2041,500.3z M2039,540.3c0.7-0.1,1.3,0,2,0c11.1,0,20,8.9,20,20
		s-8.9,20-20,20c-11.1,0-20-8.9-20-20C2021,549.9,2028.9,541.3,2039,540.3z"/>
	<path class="st3" d="M1971,390.3c-8.3,0-15,6.7-15,15c0,3.4,1.2,6.5,3.1,9c-4.9,3.6-8.1,9.4-8.1,16c0,11.1,8.9,20,20,20
		s20-8.9,20-20c0-6.6-3.2-12.4-8.1-16c1.9-2.5,3.1-5.6,3.1-9C1986,397,1979.3,390.3,1971,390.3z M1971,400.3c2.8,0,5,2.2,5,5
		s-2.2,5-5,5s-5-2.2-5-5S1968.2,400.3,1971,400.3z M1970,420.3c0.3,0,0.7,0,1,0c5.5,0,10,4.5,10,10s-4.5,10-10,10s-10-4.5-10-10
		C1961,425.1,1964.9,420.8,1970,420.3z"/>
	<path class="st3" d="M2111,690.3c-8.3,0-15-6.7-15-15c0-3.4,1.2-6.5,3.1-9c-4.9-3.6-8.1-9.4-8.1-16c0-11.1,8.9-20,20-20
		s20,8.9,20,20c0,6.6-3.2,12.4-8.1,16c1.9,2.5,3.1,5.6,3.1,9C2126,683.6,2119.3,690.3,2111,690.3z M2111,680.3c2.8,0,5-2.2,5-5
		s-2.2-5-5-5s-5,2.2-5,5S2108.2,680.3,2111,680.3z M2110,660.3c0.3,0,0.7,0,1,0c5.5,0,10-4.5,10-10s-4.5-10-10-10s-10,4.5-10,10
		C2101,655.5,2104.9,659.8,2110,660.3z"/>
	<path class="st0" d="M2201,360.3h160c22.1,0,40,17.9,40,40v280c0,22.1-17.9,40-40,40h-160c-22.1,0-40-17.9-40-40v-280
		C2161,378.2,2178.9,360.3,2201,360.3z"/>
	<path class="st6" d="M2201,380.3h160c11,0,20,9,20,20v280c0,11-9,20-20,20h-160c-11,0-20-9-20-20v-280
		C2181,389.3,2190,380.3,2201,380.3z"/>
	
		<ellipse transform="matrix(0.7071 -0.7071 0.7071 0.7071 285.982 1771.0959)" class="st0" cx="2280.9" cy="540.3" rx="126.5" ry="63.2"/>
	<path class="st6" d="M2281,480.3c-22.1,0-40,17.9-40,40c0,22.1,17.9,40,40,40c7.3,0,14.1-2,20-5.4v5.4c0,11-9,20-20,20
		c-7.8,0-14.5-4.6-17.8-11.1l-18,9c6.6,13.1,20.1,22.1,35.8,22.1c22.1,0,40-17.9,40-40v-40C2321,498.2,2303.1,480.3,2281,480.3z
		 M2281,500.3c11,0,20,9,20,20s-9,20-20,20s-20-9-20-20S2270,500.3,2281,500.3z M2261,604.3v8h40v-8H2261z"/>
	<path class="st0" d="M2211,450.3c11,0,20-9,20-20v-20c0-11-9-20-20-20s-20,9-20,20s9,20,20,20c3.6,0,7.1-1,10-2.7v2.7
		c0,5.5-4.5,10-10,10c-3.9,0-7.2-2.3-8.9-5.6l-9,4.5C2196.4,445.8,2203.2,450.3,2211,450.3z M2211,420.3c-5.5,0-10-4.5-10-10
		s4.5-10,10-10s10,4.5,10,10S2216.5,420.3,2211,420.3z"/>
	<path class="st0" d="M2351,630.3c-11,0-20,9-20,20v20c0,11,9,20,20,20s20-9,20-20s-9-20-20-20c-3.6,0-7.1,1-10,2.7v-2.7
		c0-5.5,4.5-10,10-10c3.9,0,7.2,2.3,8.9,5.6l9-4.5C2365.6,634.8,2358.8,630.3,2351,630.3z M2351,660.3c5.5,0,10,4.5,10,10
		s-4.5,10-10,10s-10-4.5-10-10S2345.5,660.3,2351,660.3z"/>
	<path class="st0" d="M2441,360.3h160c22.1,0,40,17.9,40,40v280c0,22.1-17.9,40-40,40h-160c-22.1,0-40-17.9-40-40v-280
		C2401,378.2,2418.9,360.3,2441,360.3z"/>
	<path class="st6" d="M2441,380.3h160c11,0,20,9,20,20v280c0,11-9,20-20,20h-160c-11,0-20-9-20-20v-280
		C2421,389.3,2430,380.3,2441,380.3z"/>
	
		<ellipse transform="matrix(0.7071 -0.7071 0.7071 0.7071 356.2763 1940.7997)" class="st0" cx="2520.9" cy="540.3" rx="126.5" ry="63.2"/>
	<path class="st6" d="M2521.1,480.3c-15.4,0-30.8,5.8-42.5,17.5c-23.5,23.4-23.5,61.4-0.1,84.9s61.4,23.5,84.9,0.1
		s23.5-61.4,0.1-84.9C2551.8,486.2,2536.5,480.3,2521.1,480.3L2521.1,480.3z M2521,500.3c7,0,14,1.8,20.2,5.5l-54.8,54.8
		c-9-15.4-6.9-35.5,6.2-48.6C2500.6,504.1,2510.8,500.3,2521,500.3z M2555.5,519.9c9.1,15.4,7,35.6-6.2,48.8s-33.3,15.1-48.6,6
		L2555.5,519.9z"/>
	<path class="st0" d="M2461.1,390.3c-7.7,0-15.4,2.9-21.2,8.7c-11.7,11.7-11.8,30.7-0.1,42.4c11.7,11.7,30.7,11.8,42.4,0.1
		c11.7-11.7,11.8-30.7,0.1-42.4C2476.4,393.2,2468.7,390.3,2461.1,390.3z M2461,400.3c3.5,0,7,0.9,10.1,2.7l-27.4,27.4
		c-4.5-7.7-3.5-17.7,3.1-24.3C2450.8,402.2,2455.9,400.3,2461,400.3z M2478.2,410.1c4.6,7.7,3.5,17.8-3.1,24.4s-16.6,7.6-24.3,3
		L2478.2,410.1z"/>
	<path class="st0" d="M2581.1,630.3c-7.7,0-15.4,2.9-21.2,8.7c-11.7,11.7-11.8,30.7-0.1,42.4s30.7,11.8,42.4,0.1s11.8-30.7,0.1-42.4
		C2596.4,633.2,2588.7,630.3,2581.1,630.3z M2581,640.3c3.5,0,7,0.9,10.1,2.7l-27.4,27.4c-4.5-7.7-3.5-17.7,3.1-24.3
		C2570.8,642.2,2575.9,640.3,2581,640.3z M2598.2,650.1c4.6,7.7,3.5,17.8-3.1,24.4c-6.6,6.6-16.6,7.6-24.3,3L2598.2,650.1z"/>
	<path class="st0" d="M2681,360.3h160c22.1,0,40,17.9,40,40v280c0,22.1-17.9,40-40,40h-160c-22.1,0-40-17.9-40-40v-280
		C2641,378.2,2658.9,360.3,2681,360.3z"/>
	<path class="st6" d="M2681,380.3h160c11,0,20,9,20,20v280c0,11-9,20-20,20h-160c-11,0-20-9-20-20v-280
		C2661,389.3,2670,380.3,2681,380.3z"/>
	
		<ellipse transform="matrix(0.7071 -0.7071 0.7071 0.7071 426.5705 2110.5034)" class="st0" cx="2760.9" cy="540.3" rx="126.5" ry="63.2"/>
	<path class="st8" d="M2761,475.3l10,10l-40,40c-10,10-10,30,0,40l20-20l40-40l10,10v-40H2761z"/>
	<path class="st8" d="M2761,605.3l-10-10l40-40c10-10,10-30,0-40l-20,20l-40,40l-10-10v40H2761z"/>
	<path class="st3" d="M2691,390.3l5,5l-20,20c-5,5-5,15,0,20l10-10l20-20l5,5v-20H2691z"/>
	<path class="st3" d="M2691,455.3l-5-5l20-20c5-5,5-15,0-20l-10,10l-20,20l-5-5v20H2691z"/>
	<path class="st3" d="M2831,625.3l5,5l-20,20c-5,5-5,15,0,20l10-10l20-20l5,5v-20H2831z"/>
	<path class="st3" d="M2831,690.3l-5-5l20-20c5-5,5-15,0-20l-10,10l-20,20l-5-5v20H2831z"/>
	<path class="st0" d="M281,720.3h160c22.1,0,40,17.9,40,40v280c0,22.1-17.9,40-40,40H281c-22.1,0-40-17.9-40-40v-280
		C241,738.2,258.9,720.3,281,720.3z"/>
	<path class="st7" d="M281,740.3h160c11,0,20,9,20,20v280c0,11-9,20-20,20H281c-11,0-20-9-20-20v-280C261,749.3,270,740.3,281,740.3
		z"/>
	
		<ellipse transform="matrix(0.7071 -0.7071 0.7071 0.7071 -530.8569 518.9366)" class="st0" cx="361" cy="900.3" rx="126.5" ry="63.2"/>
	<polygon class="st7" points="353,840.3 333,860.3 333,884.3 353,864.3 353,960.3 373,960.3 373,840.3 	"/>
	<polygon class="st0" points="281,750.3 271,760.3 271,772.3 281,762.3 281,810.3 291,810.3 291,750.3 	"/>
	<polygon class="st0" points="441,1050.3 451,1040.3 451,1028.3 441,1038.3 441,990.3 431,990.3 431,1050.3 	"/>
	<path class="st0" d="M41,720.3h160c22.1,0,40,17.9,40,40v280c0,22.1-17.9,40-40,40H41c-22.1,0-40-17.9-40-40v-280
		C1,738.2,18.9,720.3,41,720.3z"/>
	<path class="st7" d="M41,740.3h160c11,0,20,9,20,20v280c0,11-9,20-20,20H41c-11,0-20-9-20-20v-280C21,749.3,30,740.3,41,740.3z"/>
	
		<ellipse transform="matrix(0.7071 -0.7071 0.7071 0.7071 -601.1512 349.2328)" class="st0" cx="121" cy="900.3" rx="126.5" ry="63.2"/>
	<path class="st7" d="M121,840.3c-22.1,0-40,17.9-40,40v40c0,22.1,17.9,40,40,40s40-17.9,40-40v-40C161,858.2,143.1,840.3,121,840.3
		z M121,860.3c11,0,20,9,20,20v40c0,11-9,20-20,20s-20-9-20-20v-40C101,869.3,110,860.3,121,860.3z"/>
	<path class="st0" d="M51,750.3c-11,0-20,9-20,20v20c0,11,9,20,20,20s20-9,20-20v-20C71,759.3,62,750.3,51,750.3z M51,760.3
		c5.5,0,10,4.5,10,10v20c0,5.5-4.5,10-10,10s-10-4.5-10-10v-20C41,764.8,45.5,760.3,51,760.3z"/>
	<path class="st0" d="M191,990.3c-11,0-20,9-20,20v20c0,11,9,20,20,20s20-9,20-20v-20C211,999.3,202,990.3,191,990.3z M191,1000.3
		c5.5,0,10,4.5,10,10v20c0,5.5-4.5,10-10,10s-10-4.5-10-10v-20C181,1004.8,185.5,1000.3,191,1000.3z"/>
	<path class="st0" d="M1721,720.3h160c22.1,0,40,17.9,40,40v280c0,22.1-17.9,40-40,40h-160c-22.1,0-40-17.9-40-40v-280
		C1681,738.2,1698.9,720.3,1721,720.3z"/>
	<path class="st7" d="M1721,740.3h160c11,0,20,9,20,20v280c0,11-9,20-20,20h-160c-11,0-20-9-20-20v-280
		C1701,749.3,1710,740.3,1721,740.3z"/>
	
		<ellipse transform="matrix(0.7071 -0.7071 0.7071 0.7071 -109.1621 1537.1299)" class="st0" cx="1800.9" cy="900.3" rx="126.5" ry="63.2"/>
	<polygon class="st7" points="1767,840.3 1767,880.3 1787,880.3 1787,860.3 1827,860.3 1787,960.3 1807,960.3 1847,860.3 
		1847,840.3 1787,840.3 	"/>
	<polygon class="st0" points="1711,750.3 1711,770.3 1721,770.3 1721,760.3 1741,760.3 1721,810.3 1731,810.3 1751,760.3 
		1751,750.3 1721,750.3 	"/>
	<polygon class="st0" points="1891,1050.3 1891,1030.3 1881,1030.3 1881,1040.3 1861,1040.3 1881,990.3 1871,990.3 1851,1040.3 
		1851,1050.3 1881,1050.3 	"/>
	<path class="st0" d="M521,720.3h160c22.1,0,40,17.9,40,40v280c0,22.1-17.9,40-40,40H521c-22.1,0-40-17.9-40-40v-280
		C481,738.2,498.9,720.3,521,720.3z"/>
	<path class="st7" d="M521,740.3h160c11,0,20,9,20,20v280c0,11-9,20-20,20H521c-11,0-20-9-20-20v-280C501,749.3,510,740.3,521,740.3
		z"/>
	
		<ellipse transform="matrix(0.7071 -0.7071 0.7071 0.7071 -460.5626 688.6404)" class="st0" cx="601" cy="900.3" rx="126.5" ry="63.2"/>
	<path class="st9" d="M597,840.3c-22.2,0-40,17.8-40,40v4h20v-4c0-11.1,8.9-20,20-20s20,8.9,20,20c0,4.5-3.7,13.4-7.6,16.4
		c-21.2,16.7-21,13.9-52.4,35.6v28h40h40v-20v-8h-20v8h-20h-16c24.8-17.4,26.6-17,46-34.4c6.2-5.6,10-16.6,10-25.6
		C637,858.1,619.2,840.3,597,840.3z"/>
	<path class="st3" d="M531,750.3c-11.1,0-20,8.9-20,20v2h10v-2c0-5.5,4.5-10,10-10s10,4.5,10,10c0,2.3-1.9,6.7-3.8,8.2
		c-10.6,8.3-10.5,7-26.2,17.8v14h20h20v-10v-4h-10v4h-10h-8c12.4-8.7,13.3-8.5,23-17.2c3.1-2.8,5-8.3,5-12.8
		C551,759.2,542.1,750.3,531,750.3z"/>
	<path class="st3" d="M671,1050.3c11.1,0,20-8.9,20-20v-2h-10v2c0,5.5-4.5,10-10,10s-10-4.5-10-10c0-2.3,1.9-6.7,3.8-8.2
		c10.6-8.3,10.5-7,26.2-17.8v-14h-20h-20v10v4h10v-4h10h8c-12.4,8.7-13.3,8.5-23,17.2c-3.1,2.8-5,8.3-5,12.8
		C651,1041.4,659.9,1050.3,671,1050.3z"/>
	<path class="st0" d="M761,720.3h160c22.1,0,40,17.9,40,40v280c0,22.1-17.9,40-40,40H761c-22.1,0-40-17.9-40-40v-280
		C721,738.2,738.9,720.3,761,720.3z"/>
	<path class="st7" d="M761,740.3h160c11,0,20,9,20,20v280c0,11-9,20-20,20H761c-11,0-20-9-20-20v-280C741,749.3,750,740.3,761,740.3
		z"/>
	
		<ellipse transform="matrix(0.7071 -0.7071 0.7071 0.7071 -390.2684 858.3441)" class="st0" cx="841" cy="900.3" rx="126.5" ry="63.2"/>
	<path class="st9" d="M841,840.3c-16.6,0-30,13.4-30,30h20c0-5.5,4.5-10,10-10s10,4.5,10,10s-4.5,10-10,10h-12v20h12
		c11.1,0,20,8.9,20,20s-8.9,20-20,20s-20-8.9-20-20h-20c0,22.2,17.8,40,40,40s40-17.8,40-40c0-13.2-6.4-24.7-16.1-32
		c3.8-5,6.1-11.2,6.1-18C871,853.7,857.6,840.3,841,840.3z"/>
	<path class="st3" d="M771,750.3c-8.3,0-15,6.7-15,15h10c0-2.8,2.2-5,5-5s5,2.2,5,5s-2.2,5-5,5h-6v10h6c5.5,0,10,4.5,10,10
		s-4.5,10-10,10s-10-4.5-10-10h-10c0,11.1,8.9,20,20,20s20-8.9,20-20c0-6.6-3.2-12.4-8.1-16c1.9-2.5,3.1-5.6,3.1-9
		C786,757,779.3,750.3,771,750.3z"/>
	<path class="st3" d="M911,1050.3c8.3,0,15-6.7,15-15h-10c0,2.8-2.2,5-5,5s-5-2.2-5-5s2.2-5,5-5h6v-10h-6c-5.5,0-10-4.5-10-10
		s4.5-10,10-10s10,4.5,10,10h10c0-11.1-8.9-20-20-20s-20,8.9-20,20c0,6.6,3.2,12.4,8.1,16c-1.9,2.5-3.1,5.6-3.1,9
		C896,1043.6,902.7,1050.3,911,1050.3z"/>
	<path class="st0" d="M1001,720.3h160c22.1,0,40,17.9,40,40v280c0,22.1-17.9,40-40,40h-160c-22.1,0-40-17.9-40-40v-280
		C961,738.2,978.9,720.3,1001,720.3z"/>
	<path class="st7" d="M1001,740.3h160c11,0,20,9,20,20v280c0,11-9,20-20,20h-160c-11,0-20-9-20-20v-280
		C981,749.3,990,740.3,1001,740.3z"/>
	
		<ellipse transform="matrix(0.7071 -0.7071 0.7071 0.7071 -319.9742 1028.0479)" class="st0" cx="1081" cy="900.3" rx="126.5" ry="63.2"/>
	<polygon class="st9" points="1076.2,840.3 1037,920.3 1037,940.3 1085,940.3 1085,960.3 1105,960.3 1105,940.3 1117,940.3 
		1117,920.3 1105,920.3 1105,880.3 1085,880.3 1085,920.3 1057.8,920.3 1097,840.3 	"/>
	<polygon class="st3" points="1010.2,750.3 990.6,790.3 990.6,800.3 1014.6,800.3 1014.6,810.3 1024.6,810.3 1024.6,800.3 
		1030.6,800.3 1030.6,790.3 1024.6,790.3 1024.6,770.3 1014.6,770.3 1014.6,790.3 1001,790.3 1020.6,750.3 	"/>
	<polygon class="st3" points="1151,1050.3 1170.6,1010.3 1170.6,1000.3 1146.6,1000.3 1146.6,990.3 1136.6,990.3 1136.6,1000.3 
		1130.6,1000.3 1130.6,1010.3 1136.6,1010.3 1136.6,1030.3 1146.6,1030.3 1146.6,1010.3 1160.2,1010.3 1140.6,1050.3 	"/>
	<path class="st0" d="M1241,720.3h160c22.1,0,40,17.9,40,40v280c0,22.1-17.9,40-40,40h-160c-22.1,0-40-17.9-40-40v-280
		C1201,738.2,1218.9,720.3,1241,720.3z"/>
	<path class="st7" d="M1241,740.3h160c11,0,20,9,20,20v280c0,11-9,20-20,20h-160c-11,0-20-9-20-20v-280
		C1221,749.3,1230,740.3,1241,740.3z"/>
	
		<ellipse transform="matrix(0.7071 -0.7071 0.7071 0.7071 -249.68 1197.7517)" class="st0" cx="1321" cy="900.3" rx="126.5" ry="63.2"/>
	<path class="st9" d="M1285,840.3v40v20h40c11.1,0,20,8.9,20,20s-8.9,20-20,20s-20-8.9-20-20h-20c0,22.2,17.8,40,40,40
		s40-17.8,40-40s-17.8-40-40-40h-20v-20h20h36v-20h-36h-20H1285z"/>
	<path class="st3" d="M1231,750.3v20v10h20c5.5,0,10,4.5,10,10s-4.5,10-10,10s-10-4.5-10-10h-10c0,11.1,8.9,20,20,20s20-8.9,20-20
		s-8.9-20-20-20h-10v-10h10h18v-10h-18h-10H1231z"/>
	<path class="st3" d="M1411,1050.3v-20v-10h-20c-5.5,0-10-4.5-10-10s4.5-10,10-10s10,4.5,10,10h10c0-11.1-8.9-20-20-20
		s-20,8.9-20,20s8.9,20,20,20h10v10h-10h-18v10h18h10H1411z"/>
	<path class="st0" d="M1481,720.3h160c22.1,0,40,17.9,40,40v280c0,22.1-17.9,40-40,40h-160c-22.1,0-40-17.9-40-40v-280
		C1441,738.2,1458.9,720.3,1481,720.3z"/>
	<path class="st7" d="M1481,740.3h160c11,0,20,9,20,20v280c0,11-9,20-20,20h-160c-11,0-20-9-20-20v-280
		C1461,749.3,1470,740.3,1481,740.3z"/>
	
		<ellipse transform="matrix(0.7071 -0.7071 0.7071 0.7071 -179.4563 1367.4261)" class="st0" cx="1560.9" cy="900.3" rx="126.5" ry="63.2"/>
	<path class="st7" d="M1561,840.3c-22.1,0-40,17.9-40,40v40c0,22.1,17.9,40,40,40s40-17.9,40-40s-17.9-40-40-40
		c-7.3,0-14.1,2-20,5.4v-5.4c0-11,9-20,20-20c7.8,0,14.5,4.6,17.8,11.1l18-9C1590.2,849.3,1576.7,840.3,1561,840.3z M1561,900.3
		c11,0,20,9,20,20s-9,20-20,20s-20-9-20-20S1550,900.3,1561,900.3z M1541,964.3v8h40v-8H1541z"/>
	<path class="st0" d="M1491,750.3c-11,0-20,9-20,20v20c0,11,9,20,20,20s20-9,20-20s-9-20-20-20c-3.6,0-7.1,1-10,2.7v-2.7
		c0-5.5,4.5-10,10-10c3.9,0,7.2,2.3,8.9,5.6l9-4.5C1505.6,754.8,1498.8,750.3,1491,750.3z M1491,780.3c5.5,0,10,4.5,10,10
		s-4.5,10-10,10s-10-4.5-10-10S1485.5,780.3,1491,780.3z"/>
	<path class="st0" d="M1631,1050.3c11,0,20-9,20-20v-20c0-11-9-20-20-20s-20,9-20,20s9,20,20,20c3.6,0,7.1-1,10-2.7v2.7
		c0,5.5-4.5,10-10,10c-3.9,0-7.2-2.3-8.9-5.6l-9,4.5C1616.4,1045.8,1623.2,1050.3,1631,1050.3z M1631,1020.3c-5.5,0-10-4.5-10-10
		s4.5-10,10-10s10,4.5,10,10S1636.5,1020.3,1631,1020.3z"/>
	<path class="st0" d="M1961,720.3h160c22.1,0,40,17.9,40,40v280c0,22.1-17.9,40-40,40h-160c-22.1,0-40-17.9-40-40v-280
		C1921,738.2,1938.9,720.3,1961,720.3z"/>
	<path class="st7" d="M1961,740.3h160c11,0,20,9,20,20v280c0,11-9,20-20,20h-160c-11,0-20-9-20-20v-280
		C1941,749.3,1950,740.3,1961,740.3z"/>
	
		<ellipse transform="matrix(0.7071 -0.7071 0.7071 0.7071 -38.8678 1706.8336)" class="st0" cx="2040.9" cy="900.3" rx="126.5" ry="63.2"/>
	<path class="st9" d="M2041,840.3c-16.6,0-30,13.4-30,30c0,6.8,2.3,13,6.1,18c-9.8,7.3-16.1,18.8-16.1,32c0,22.2,17.8,40,40,40
		s40-17.8,40-40c0-13.2-6.4-24.7-16.1-32c3.8-5,6.1-11.2,6.1-18C2071,853.7,2057.6,840.3,2041,840.3z M2041,860.3
		c5.5,0,10,4.5,10,10s-4.5,10-10,10s-10-4.5-10-10S2035.5,860.3,2041,860.3z M2039,900.3c0.7-0.1,1.3,0,2,0c11.1,0,20,8.9,20,20
		s-8.9,20-20,20c-11.1,0-20-8.9-20-20C2021,909.9,2028.9,901.3,2039,900.3z"/>
	<path class="st3" d="M1971,750.3c-8.3,0-15,6.7-15,15c0,3.4,1.2,6.5,3.1,9c-4.9,3.6-8.1,9.4-8.1,16c0,11.1,8.9,20,20,20
		s20-8.9,20-20c0-6.6-3.2-12.4-8.1-16c1.9-2.5,3.1-5.6,3.1-9C1986,757,1979.3,750.3,1971,750.3z M1971,760.3c2.8,0,5,2.2,5,5
		s-2.2,5-5,5s-5-2.2-5-5S1968.2,760.3,1971,760.3z M1970,780.3c0.3,0,0.7,0,1,0c5.5,0,10,4.5,10,10s-4.5,10-10,10s-10-4.5-10-10
		C1961,785.1,1964.9,780.8,1970,780.3z"/>
	<path class="st3" d="M2111,1050.3c-8.3,0-15-6.7-15-15c0-3.4,1.2-6.5,3.1-9c-4.9-3.6-8.1-9.4-8.1-16c0-11.1,8.9-20,20-20
		s20,8.9,20,20c0,6.6-3.2,12.4-8.1,16c1.9,2.5,3.1,5.6,3.1,9C2126,1043.6,2119.3,1050.3,2111,1050.3z M2111,1040.3c2.8,0,5-2.2,5-5
		s-2.2-5-5-5s-5,2.2-5,5S2108.2,1040.3,2111,1040.3z M2110,1020.3c0.3,0,0.7,0,1,0c5.5,0,10-4.5,10-10s-4.5-10-10-10s-10,4.5-10,10
		C2101,1015.5,2104.9,1019.8,2110,1020.3z"/>
	<path class="st0" d="M2201,720.3h160c22.1,0,40,17.9,40,40v280c0,22.1-17.9,40-40,40h-160c-22.1,0-40-17.9-40-40v-280
		C2161,738.2,2178.9,720.3,2201,720.3z"/>
	<path class="st7" d="M2201,740.3h160c11,0,20,9,20,20v280c0,11-9,20-20,20h-160c-11,0-20-9-20-20v-280
		C2181,749.3,2190,740.3,2201,740.3z"/>
	
		<ellipse transform="matrix(0.7071 -0.7071 0.7071 0.7071 31.4263 1876.5374)" class="st0" cx="2280.9" cy="900.3" rx="126.5" ry="63.2"/>
	<path class="st7" d="M2281,840.3c-22.1,0-40,17.9-40,40s17.9,40,40,40c7.3,0,14.1-2,20-5.4v5.4c0,11-9,20-20,20
		c-7.8,0-14.5-4.6-17.8-11.1l-18,9c6.6,13.1,20.1,22.1,35.8,22.1c22.1,0,40-17.9,40-40v-40C2321,858.2,2303.1,840.3,2281,840.3z
		 M2281,860.3c11,0,20,9,20,20s-9,20-20,20s-20-9-20-20S2270,860.3,2281,860.3z M2261,964.3v8h40v-8H2261z"/>
	<path class="st0" d="M2211,810.3c11,0,20-9,20-20v-20c0-11-9-20-20-20s-20,9-20,20s9,20,20,20c3.6,0,7.1-1,10-2.7v2.7
		c0,5.5-4.5,10-10,10c-3.9,0-7.2-2.3-8.9-5.6l-9,4.5C2196.4,805.8,2203.2,810.3,2211,810.3z M2211,780.3c-5.5,0-10-4.5-10-10
		s4.5-10,10-10s10,4.5,10,10S2216.5,780.3,2211,780.3z"/>
	<path class="st0" d="M2351,990.3c-11,0-20,9-20,20v20c0,11,9,20,20,20s20-9,20-20s-9-20-20-20c-3.6,0-7.1,1-10,2.7v-2.7
		c0-5.5,4.5-10,10-10c3.9,0,7.2,2.3,8.9,5.6l9-4.5C2365.6,994.8,2358.8,990.3,2351,990.3z M2351,1020.3c5.5,0,10,4.5,10,10
		s-4.5,10-10,10s-10-4.5-10-10S2345.5,1020.3,2351,1020.3z"/>
	<path class="st0" d="M2441,720.3h160c22.1,0,40,17.9,40,40v280c0,22.1-17.9,40-40,40h-160c-22.1,0-40-17.9-40-40v-280
		C2401,738.2,2418.9,720.3,2441,720.3z"/>
	<path class="st7" d="M2441,740.3h160c11,0,20,9,20,20v280c0,11-9,20-20,20h-160c-11,0-20-9-20-20v-280
		C2421,749.3,2430,740.3,2441,740.3z"/>
	
		<ellipse transform="matrix(0.7071 -0.7071 0.7071 0.7071 101.7206 2046.2412)" class="st0" cx="2520.9" cy="900.3" rx="126.5" ry="63.2"/>
	<path class="st7" d="M2521.1,840.3c-15.4,0-30.8,5.8-42.5,17.5c-23.5,23.4-23.5,61.4-0.1,84.9s61.4,23.5,84.9,0.1
		s23.5-61.4,0.1-84.9C2551.8,846.2,2536.5,840.3,2521.1,840.3L2521.1,840.3z M2521,860.3c7,0,14,1.8,20.2,5.5l-54.8,54.8
		c-9-15.4-6.9-35.5,6.2-48.6C2500.6,864.1,2510.8,860.3,2521,860.3z M2555.5,879.9c9.1,15.4,7,35.6-6.2,48.8s-33.3,15.1-48.6,6
		L2555.5,879.9z"/>
	<path class="st0" d="M2461.1,750.3c-7.7,0-15.4,2.9-21.2,8.7c-11.7,11.7-11.8,30.7-0.1,42.4s30.7,11.8,42.4,0.1s11.8-30.7,0.1-42.4
		C2476.4,753.2,2468.7,750.3,2461.1,750.3z M2461,760.3c3.5,0,7,0.9,10.1,2.7l-27.4,27.4c-4.5-7.7-3.5-17.7,3.1-24.3
		C2450.8,762.2,2455.9,760.3,2461,760.3z M2478.2,770.1c4.6,7.7,3.5,17.8-3.1,24.4c-6.6,6.6-16.6,7.6-24.3,3L2478.2,770.1z"/>
	<path class="st0" d="M2581.1,990.3c-7.7,0-15.4,2.9-21.2,8.7c-11.7,11.7-11.8,30.7-0.1,42.4s30.7,11.8,42.4,0.1
		c11.7-11.7,11.8-30.7,0.1-42.4C2596.4,993.2,2588.7,990.3,2581.1,990.3z M2581,1000.3c3.5,0,7,0.9,10.1,2.7l-27.4,27.4
		c-4.5-7.7-3.5-17.7,3.1-24.3C2570.8,1002.2,2575.9,1000.3,2581,1000.3z M2598.2,1010.1c4.6,7.7,3.5,17.8-3.1,24.4s-16.6,7.6-24.3,3
		L2598.2,1010.1z"/>
	<path class="st0" d="M2681,720.3h160c22.1,0,40,17.9,40,40v280c0,22.1-17.9,40-40,40h-160c-22.1,0-40-17.9-40-40v-280
		C2641,738.2,2658.9,720.3,2681,720.3z"/>
	<path class="st7" d="M2681,740.3h160c11,0,20,9,20,20v280c0,11-9,20-20,20h-160c-11,0-20-9-20-20v-280
		C2661,749.3,2670,740.3,2681,740.3z"/>
	
		<ellipse transform="matrix(0.7071 -0.7071 0.7071 0.7071 172.0148 2215.9448)" class="st0" cx="2760.9" cy="900.3" rx="126.5" ry="63.2"/>
	<path class="st9" d="M2761,835.3l10,10l-40,40c-10,10-10,30,0,40l20-20l40-40l10,10v-40H2761z"/>
	<path class="st9" d="M2761,965.3l-10-10l40-40c10-10,10-30,0-40l-20,20l-40,40l-10-10v40H2761z"/>
	<path class="st3" d="M2691,750.3l5,5l-20,20c-5,5-5,15,0,20l10-10l20-20l5,5v-20H2691z"/>
	<path class="st3" d="M2691,815.3l-5-5l20-20c5-5,5-15,0-20l-10,10l-20,20l-5-5v20H2691z"/>
	<path class="st3" d="M2831,985.3l5,5l-20,20c-5,5-5,15,0,20l10-10l20-20l5,5v-20L2831,985.3L2831,985.3z"/>
	<path class="st3" d="M2831,1050.3l-5-5l20-20c5-5,5-15,0-20l-10,10l-20,20l-5-5v20H2831z"/>
	<path class="st0" d="M281,1080.3h160c22.1,0,40,17.9,40,40v280c0,22.1-17.9,40-40,40H281c-22.1,0-40-17.9-40-40v-280
		C241,1098.2,258.9,1080.3,281,1080.3z"/>
	<path class="st5" d="M281,1100.3h160c11,0,20,9,20,20v280c0,11-9,20-20,20H281c-11,0-20-9-20-20v-280
		C261,1109.3,270,1100.3,281,1100.3z"/>
	
		<ellipse transform="matrix(0.7071 -0.7071 0.7071 0.7071 -785.4125 624.378)" class="st0" cx="361" cy="1260.3" rx="126.5" ry="63.2"/>
	<polygon class="st5" points="353,1200.3 333,1220.3 333,1244.3 353,1224.3 353,1320.3 373,1320.3 373,1200.3 	"/>
	<polygon class="st0" points="281,1110.3 271,1120.3 271,1132.3 281,1122.3 281,1170.3 291,1170.3 291,1110.3 	"/>
	<polygon class="st0" points="441,1410.3 451,1400.3 451,1388.3 441,1398.3 441,1350.3 431,1350.3 431,1410.3 	"/>
	<path class="st0" d="M41,1080.3h160c22.1,0,40,17.9,40,40v280c0,22.1-17.9,40-40,40H41c-22.1,0-40-17.9-40-40v-280
		C1,1098.2,18.9,1080.3,41,1080.3z"/>
	<path class="st5" d="M41,1100.3h160c11,0,20,9,20,20v280c0,11-9,20-20,20H41c-11,0-20-9-20-20v-280C21,1109.3,30,1100.3,41,1100.3z
		"/>
	
		<ellipse transform="matrix(0.7071 -0.7071 0.7071 0.7071 -855.7068 454.6743)" class="st0" cx="121" cy="1260.3" rx="126.5" ry="63.2"/>
	<path class="st5" d="M121,1200.3c-22.1,0-40,17.9-40,40v40c0,22.1,17.9,40,40,40s40-17.9,40-40v-40
		C161,1218.2,143.1,1200.3,121,1200.3z M121,1220.3c11,0,20,9,20,20v40c0,11-9,20-20,20s-20-9-20-20v-40
		C101,1229.3,110,1220.3,121,1220.3z"/>
	<path class="st0" d="M51,1110.3c-11,0-20,9-20,20v20c0,11,9,20,20,20s20-9,20-20v-20C71,1119.3,62,1110.3,51,1110.3z M51,1120.3
		c5.5,0,10,4.5,10,10v20c0,5.5-4.5,10-10,10s-10-4.5-10-10v-20C41,1124.8,45.5,1120.3,51,1120.3z"/>
	<path class="st0" d="M191,1350.3c-11,0-20,9-20,20v20c0,11,9,20,20,20s20-9,20-20v-20C211,1359.3,202,1350.3,191,1350.3z
		 M191,1360.3c5.5,0,10,4.5,10,10v20c0,5.5-4.5,10-10,10s-10-4.5-10-10v-20C181,1364.8,185.5,1360.3,191,1360.3z"/>
	<path class="st0" d="M1721,1080.3h160c22.1,0,40,17.9,40,40v280c0,22.1-17.9,40-40,40h-160c-22.1,0-40-17.9-40-40v-280
		C1681,1098.2,1698.9,1080.3,1721,1080.3z"/>
	<path class="st5" d="M1721,1100.3h160c11,0,20,9,20,20v280c0,11-9,20-20,20h-160c-11,0-20-9-20-20v-280
		C1701,1109.3,1710,1100.3,1721,1100.3z"/>
	
		<ellipse transform="matrix(0.7071 -0.7071 0.7071 0.7071 -363.7178 1642.5713)" class="st0" cx="1800.9" cy="1260.3" rx="126.5" ry="63.2"/>
	<polygon class="st5" points="1767,1200.3 1767,1240.3 1787,1240.3 1787,1220.3 1827,1220.3 1787,1320.3 1807,1320.3 1847,1220.3 
		1847,1200.3 1787,1200.3 	"/>
	<polygon class="st0" points="1711,1110.3 1711,1130.3 1721,1130.3 1721,1120.3 1741,1120.3 1721,1170.3 1731,1170.3 1751,1120.3 
		1751,1110.3 1721,1110.3 	"/>
	<polygon class="st0" points="1891,1410.3 1891,1390.3 1881,1390.3 1881,1400.3 1861,1400.3 1881,1350.3 1871,1350.3 1851,1400.3 
		1851,1410.3 1881,1410.3 	"/>
	<path class="st0" d="M521,1080.3h160c22.1,0,40,17.9,40,40v280c0,22.1-17.9,40-40,40H521c-22.1,0-40-17.9-40-40v-280
		C481,1098.2,498.9,1080.3,521,1080.3z"/>
	<path class="st5" d="M521,1100.3h160c11,0,20,9,20,20v280c0,11-9,20-20,20H521c-11,0-20-9-20-20v-280
		C501,1109.3,510,1100.3,521,1100.3z"/>
	
		<ellipse transform="matrix(0.7071 -0.7071 0.7071 0.7071 -715.1183 794.0818)" class="st0" cx="601" cy="1260.3" rx="126.5" ry="63.2"/>
	<path class="st10" d="M597,1200.3c-22.2,0-40,17.8-40,40v4h20v-4c0-11.1,8.9-20,20-20s20,8.9,20,20c0,4.5-3.7,13.4-7.6,16.4
		c-21.2,16.7-21,13.9-52.4,35.6v28h40h40v-20v-8h-20v8h-20h-16c24.8-17.4,26.6-17,46-34.4c6.2-5.6,10-16.6,10-25.6
		C637,1218.1,619.2,1200.3,597,1200.3z"/>
	<path class="st3" d="M531,1110.3c-11.1,0-20,8.9-20,20v2h10v-2c0-5.5,4.5-10,10-10s10,4.5,10,10c0,2.3-1.9,6.7-3.8,8.2
		c-10.6,8.3-10.5,7-26.2,17.8v14h20h20v-10v-4h-10v4h-10h-8c12.4-8.7,13.3-8.5,23-17.2c3.1-2.8,5-8.3,5-12.8
		C551,1119.2,542.1,1110.3,531,1110.3z"/>
	<path class="st3" d="M671,1410.3c11.1,0,20-8.9,20-20v-2h-10v2c0,5.5-4.5,10-10,10s-10-4.5-10-10c0-2.3,1.9-6.7,3.8-8.2
		c10.6-8.3,10.5-7,26.2-17.8v-14h-20h-20v10v4h10v-4h10h8c-12.4,8.7-13.3,8.5-23,17.2c-3.1,2.8-5,8.3-5,12.8
		C651,1401.4,659.9,1410.3,671,1410.3z"/>
	<path class="st0" d="M761,1080.3h160c22.1,0,40,17.9,40,40v280c0,22.1-17.9,40-40,40H761c-22.1,0-40-17.9-40-40v-280
		C721,1098.2,738.9,1080.3,761,1080.3z"/>
	<path class="st5" d="M761,1100.3h160c11,0,20,9,20,20v280c0,11-9,20-20,20H761c-11,0-20-9-20-20v-280
		C741,1109.3,750,1100.3,761,1100.3z"/>
	
		<ellipse transform="matrix(0.7071 -0.7071 0.7071 0.7071 -644.8241 963.7856)" class="st0" cx="841" cy="1260.3" rx="126.5" ry="63.2"/>
	<path class="st10" d="M841,1200.3c-16.6,0-30,13.4-30,30h20c0-5.5,4.5-10,10-10s10,4.5,10,10s-4.5,10-10,10h-12v20h12
		c11.1,0,20,8.9,20,20s-8.9,20-20,20s-20-8.9-20-20h-20c0,22.2,17.8,40,40,40s40-17.8,40-40c0-13.2-6.4-24.7-16.1-32
		c3.8-5,6.1-11.2,6.1-18C871,1213.7,857.6,1200.3,841,1200.3z"/>
	<path class="st3" d="M771,1110.3c-8.3,0-15,6.7-15,15h10c0-2.8,2.2-5,5-5s5,2.2,5,5s-2.2,5-5,5h-6v10h6c5.5,0,10,4.5,10,10
		s-4.5,10-10,10s-10-4.5-10-10h-10c0,11.1,8.9,20,20,20s20-8.9,20-20c0-6.6-3.2-12.4-8.1-16c1.9-2.5,3.1-5.6,3.1-9
		C786,1117,779.3,1110.3,771,1110.3z"/>
	<path class="st3" d="M911,1410.3c8.3,0,15-6.7,15-15h-10c0,2.8-2.2,5-5,5s-5-2.2-5-5s2.2-5,5-5h6v-10h-6c-5.5,0-10-4.5-10-10
		s4.5-10,10-10s10,4.5,10,10h10c0-11.1-8.9-20-20-20s-20,8.9-20,20c0,6.6,3.2,12.4,8.1,16c-1.9,2.5-3.1,5.6-3.1,9
		C896,1403.6,902.7,1410.3,911,1410.3z"/>
	<path class="st0" d="M1001,1080.3h160c22.1,0,40,17.9,40,40v280c0,22.1-17.9,40-40,40h-160c-22.1,0-40-17.9-40-40v-280
		C961,1098.2,978.9,1080.3,1001,1080.3z"/>
	<path class="st5" d="M1001,1100.3h160c11,0,20,9,20,20v280c0,11-9,20-20,20h-160c-11,0-20-9-20-20v-280
		C981,1109.3,990,1100.3,1001,1100.3z"/>
	
		<ellipse transform="matrix(0.7071 -0.7071 0.7071 0.7071 -574.5298 1133.4894)" class="st0" cx="1081" cy="1260.3" rx="126.5" ry="63.2"/>
	<polygon class="st10" points="1076.2,1200.3 1037,1280.3 1037,1300.3 1085,1300.3 1085,1320.3 1105,1320.3 1105,1300.3 
		1117,1300.3 1117,1280.3 1105,1280.3 1105,1240.3 1085,1240.3 1085,1280.3 1057.8,1280.3 1097,1200.3 	"/>
	<polygon class="st3" points="1010.2,1110.3 990.6,1150.3 990.6,1160.3 1014.6,1160.3 1014.6,1170.3 1024.6,1170.3 1024.6,1160.3 
		1030.6,1160.3 1030.6,1150.3 1024.6,1150.3 1024.6,1130.3 1014.6,1130.3 1014.6,1150.3 1001,1150.3 1020.6,1110.3 	"/>
	<polygon class="st3" points="1151,1410.3 1170.6,1370.3 1170.6,1360.3 1146.6,1360.3 1146.6,1350.3 1136.6,1350.3 1136.6,1360.3 
		1130.6,1360.3 1130.6,1370.3 1136.6,1370.3 1136.6,1390.3 1146.6,1390.3 1146.6,1370.3 1160.2,1370.3 1140.6,1410.3 	"/>
	<path class="st0" d="M1241,1080.3h160c22.1,0,40,17.9,40,40v280c0,22.1-17.9,40-40,40h-160c-22.1,0-40-17.9-40-40v-280
		C1201,1098.2,1218.9,1080.3,1241,1080.3z"/>
	<path class="st5" d="M1241,1100.3h160c11,0,20,9,20,20v280c0,11-9,20-20,20h-160c-11,0-20-9-20-20v-280
		C1221,1109.3,1230,1100.3,1241,1100.3z"/>
	
		<ellipse transform="matrix(0.7071 -0.7071 0.7071 0.7071 -504.2356 1303.1931)" class="st0" cx="1321" cy="1260.3" rx="126.5" ry="63.2"/>
	<path class="st10" d="M1285,1200.3v40v20h40c11.1,0,20,8.9,20,20s-8.9,20-20,20s-20-8.9-20-20h-20c0,22.2,17.8,40,40,40
		s40-17.8,40-40s-17.8-40-40-40h-20v-20h20h36v-20h-36h-20H1285z"/>
	<path class="st3" d="M1231,1110.3v20v10h20c5.5,0,10,4.5,10,10s-4.5,10-10,10s-10-4.5-10-10h-10c0,11.1,8.9,20,20,20s20-8.9,20-20
		s-8.9-20-20-20h-10v-10h10h18v-10h-18h-10H1231z"/>
	<path class="st3" d="M1411,1410.3v-20v-10h-20c-5.5,0-10-4.5-10-10s4.5-10,10-10s10,4.5,10,10h10c0-11.1-8.9-20-20-20
		s-20,8.9-20,20s8.9,20,20,20h10v10h-10h-18v10h18h10H1411z"/>
	<path class="st0" d="M1481,1080.3h160c22.1,0,40,17.9,40,40v280c0,22.1-17.9,40-40,40h-160c-22.1,0-40-17.9-40-40v-280
		C1441,1098.2,1458.9,1080.3,1481,1080.3z"/>
	<path class="st5" d="M1481,1100.3h160c11,0,20,9,20,20v280c0,11-9,20-20,20h-160c-11,0-20-9-20-20v-280
		C1461,1109.3,1470,1100.3,1481,1100.3z"/>
	
		<ellipse transform="matrix(0.7071 -0.7071 0.7071 0.7071 -434.0119 1472.8676)" class="st0" cx="1560.9" cy="1260.3" rx="126.5" ry="63.2"/>
	<path class="st5" d="M1561,1200.3c-22.1,0-40,17.9-40,40v40c0,22.1,17.9,40,40,40s40-17.9,40-40s-17.9-40-40-40
		c-7.3,0-14.1,2-20,5.4v-5.4c0-11,9-20,20-20c7.8,0,14.5,4.6,17.8,11.1l18-9C1590.2,1209.3,1576.7,1200.3,1561,1200.3z M1561,1260.3
		c11,0,20,9,20,20s-9,20-20,20s-20-9-20-20S1550,1260.3,1561,1260.3z M1541,1324.3v8h40v-8H1541z"/>
	<path class="st0" d="M1491,1110.3c-11,0-20,9-20,20v20c0,11,9,20,20,20s20-9,20-20s-9-20-20-20c-3.6,0-7.1,1-10,2.7v-2.7
		c0-5.5,4.5-10,10-10c3.9,0,7.2,2.3,8.9,5.6l9-4.5C1505.6,1114.8,1498.8,1110.3,1491,1110.3z M1491,1140.3c5.5,0,10,4.5,10,10
		s-4.5,10-10,10s-10-4.5-10-10S1485.5,1140.3,1491,1140.3z"/>
	<path class="st0" d="M1631,1410.3c11,0,20-9,20-20v-20c0-11-9-20-20-20s-20,9-20,20s9,20,20,20c3.6,0,7.1-1,10-2.7v2.7
		c0,5.5-4.5,10-10,10c-3.9,0-7.2-2.3-8.9-5.6l-9,4.5C1616.4,1405.8,1623.2,1410.3,1631,1410.3z M1631,1380.3c-5.5,0-10-4.5-10-10
		s4.5-10,10-10s10,4.5,10,10S1636.5,1380.3,1631,1380.3z"/>
	<path class="st0" d="M1961,1080.3h160c22.1,0,40,17.9,40,40v280c0,22.1-17.9,40-40,40h-160c-22.1,0-40-17.9-40-40v-280
		C1921,1098.2,1938.9,1080.3,1961,1080.3z"/>
	<path class="st5" d="M1961,1100.3h160c11,0,20,9,20,20v280c0,11-9,20-20,20h-160c-11,0-20-9-20-20v-280
		C1941,1109.3,1950,1100.3,1961,1100.3z"/>
	
		<ellipse transform="matrix(0.7071 -0.7071 0.7071 0.7071 -293.4235 1812.2751)" class="st0" cx="2040.9" cy="1260.3" rx="126.5" ry="63.2"/>
	<path class="st10" d="M2041,1200.3c-16.6,0-30,13.4-30,30c0,6.8,2.3,13,6.1,18c-9.8,7.3-16.1,18.8-16.1,32c0,22.2,17.8,40,40,40
		s40-17.8,40-40c0-13.2-6.4-24.7-16.1-32c3.8-5,6.1-11.2,6.1-18C2071,1213.7,2057.6,1200.3,2041,1200.3z M2041,1220.3
		c5.5,0,10,4.5,10,10s-4.5,10-10,10s-10-4.5-10-10S2035.5,1220.3,2041,1220.3z M2039,1260.3c0.7-0.1,1.3,0,2,0c11.1,0,20,8.9,20,20
		s-8.9,20-20,20c-11.1,0-20-8.9-20-20C2021,1269.9,2028.9,1261.3,2039,1260.3z"/>
	<path class="st3" d="M1971,1110.3c-8.3,0-15,6.7-15,15c0,3.4,1.2,6.5,3.1,9c-4.9,3.6-8.1,9.4-8.1,16c0,11.1,8.9,20,20,20
		s20-8.9,20-20c0-6.6-3.2-12.4-8.1-16c1.9-2.5,3.1-5.6,3.1-9C1986,1117,1979.3,1110.3,1971,1110.3z M1971,1120.3c2.8,0,5,2.2,5,5
		s-2.2,5-5,5s-5-2.2-5-5S1968.2,1120.3,1971,1120.3z M1970,1140.3c0.3,0,0.7,0,1,0c5.5,0,10,4.5,10,10s-4.5,10-10,10s-10-4.5-10-10
		C1961,1145.1,1964.9,1140.8,1970,1140.3z"/>
	<path class="st3" d="M2111,1410.3c-8.3,0-15-6.7-15-15c0-3.4,1.2-6.5,3.1-9c-4.9-3.6-8.1-9.4-8.1-16c0-11.1,8.9-20,20-20
		s20,8.9,20,20c0,6.6-3.2,12.4-8.1,16c1.9,2.5,3.1,5.6,3.1,9C2126,1403.6,2119.3,1410.3,2111,1410.3z M2111,1400.3c2.8,0,5-2.2,5-5
		s-2.2-5-5-5s-5,2.2-5,5S2108.2,1400.3,2111,1400.3z M2110,1380.3c0.3,0,0.7,0,1,0c5.5,0,10-4.5,10-10s-4.5-10-10-10s-10,4.5-10,10
		C2101,1375.5,2104.9,1379.8,2110,1380.3z"/>
	<path class="st0" d="M2201,1080.3h160c22.1,0,40,17.9,40,40v280c0,22.1-17.9,40-40,40h-160c-22.1,0-40-17.9-40-40v-280
		C2161,1098.2,2178.9,1080.3,2201,1080.3z"/>
	<path class="st5" d="M2201,1100.3h160c11,0,20,9,20,20v280c0,11-9,20-20,20h-160c-11,0-20-9-20-20v-280
		C2181,1109.3,2190,1100.3,2201,1100.3z"/>
	
		<ellipse transform="matrix(0.7071 -0.7071 0.7071 0.7071 -223.1293 1981.9788)" class="st0" cx="2280.9" cy="1260.3" rx="126.5" ry="63.2"/>
	<path class="st5" d="M2281,1200.3c-22.1,0-40,17.9-40,40s17.9,40,40,40c7.3,0,14.1-2,20-5.4v5.4c0,11-9,20-20,20
		c-7.8,0-14.5-4.6-17.8-11.1l-18,9c6.6,13.1,20.1,22.1,35.8,22.1c22.1,0,40-17.9,40-40v-40C2321,1218.2,2303.1,1200.3,2281,1200.3z
		 M2281,1220.3c11,0,20,9,20,20s-9,20-20,20s-20-9-20-20S2270,1220.3,2281,1220.3z M2261,1324.3v8h40v-8H2261z"/>
	<path class="st0" d="M2211,1170.3c11,0,20-9,20-20v-20c0-11-9-20-20-20s-20,9-20,20s9,20,20,20c3.6,0,7.1-1,10-2.7v2.7
		c0,5.5-4.5,10-10,10c-3.9,0-7.2-2.3-8.9-5.6l-9,4.5C2196.4,1165.8,2203.2,1170.3,2211,1170.3z M2211,1140.3c-5.5,0-10-4.5-10-10
		s4.5-10,10-10s10,4.5,10,10S2216.5,1140.3,2211,1140.3z"/>
	<path class="st0" d="M2351,1350.3c-11,0-20,9-20,20v20c0,11,9,20,20,20s20-9,20-20s-9-20-20-20c-3.6,0-7.1,1-10,2.7v-2.7
		c0-5.5,4.5-10,10-10c3.9,0,7.2,2.3,8.9,5.6l9-4.5C2365.6,1354.8,2358.8,1350.3,2351,1350.3z M2351,1380.3c5.5,0,10,4.5,10,10
		s-4.5,10-10,10s-10-4.5-10-10S2345.5,1380.3,2351,1380.3z"/>
	<path class="st0" d="M2441,1080.3h160c22.1,0,40,17.9,40,40v280c0,22.1-17.9,40-40,40h-160c-22.1,0-40-17.9-40-40v-280
		C2401,1098.2,2418.9,1080.3,2441,1080.3z"/>
	<path class="st11" d="M2441,1100.3h160c11,0,20,9,20,20v280c0,11-9,20-20,20h-160c-11,0-20-9-20-20v-280
		C2421,1109.3,2430,1100.3,2441,1100.3z"/>
	
		<ellipse transform="matrix(0.7071 -0.7071 0.7071 0.7071 -152.8349 2151.6826)" class="st0" cx="2520.9" cy="1260.3" rx="126.5" ry="63.2"/>
	<path class="st11" d="M2521.1,1200.3c-15.4,0-30.8,5.8-42.5,17.5c-23.5,23.4-23.5,61.4-0.1,84.9s61.4,23.5,84.9,0.1
		s23.5-61.4,0.1-84.9C2551.8,1206.2,2536.5,1200.3,2521.1,1200.3L2521.1,1200.3z M2521,1220.3c7,0,14,1.8,20.2,5.5l-54.8,54.8
		c-9-15.4-6.9-35.5,6.2-48.6C2500.6,1224.1,2510.8,1220.3,2521,1220.3z M2555.5,1239.9c9.1,15.4,7,35.6-6.2,48.8
		c-13.2,13.2-33.3,15.1-48.6,6L2555.5,1239.9z"/>
	<path class="st0" d="M2461.1,1110.3c-7.7,0-15.4,2.9-21.2,8.7c-11.7,11.7-11.8,30.7-0.1,42.4c11.7,11.7,30.7,11.8,42.4,0.1
		c11.7-11.7,11.8-30.7,0.1-42.4C2476.4,1113.2,2468.7,1110.3,2461.1,1110.3z M2461,1120.3c3.5,0,7,0.9,10.1,2.7l-27.4,27.4
		c-4.5-7.7-3.5-17.7,3.1-24.3C2450.8,1122.2,2455.9,1120.3,2461,1120.3z M2478.2,1130.1c4.6,7.7,3.5,17.8-3.1,24.4s-16.6,7.6-24.3,3
		L2478.2,1130.1z"/>
	<path class="st0" d="M2581.1,1350.3c-7.7,0-15.4,2.9-21.2,8.7c-11.7,11.7-11.8,30.7-0.1,42.4c11.7,11.7,30.7,11.8,42.4,0.1
		c11.7-11.7,11.8-30.7,0.1-42.4C2596.4,1353.2,2588.7,1350.3,2581.1,1350.3z M2581,1360.3c3.5,0,7,0.9,10.1,2.7l-27.4,27.4
		c-4.5-7.7-3.5-17.7,3.1-24.3C2570.8,1362.2,2575.9,1360.3,2581,1360.3z M2598.2,1370.1c4.6,7.7,3.5,17.8-3.1,24.4s-16.6,7.6-24.3,3
		L2598.2,1370.1z"/>
	<path class="st0" d="M2681,1080.3h160c22.1,0,40,17.9,40,40v280c0,22.1-17.9,40-40,40h-160c-22.1,0-40-17.9-40-40v-280
		C2641,1098.2,2658.9,1080.3,2681,1080.3z"/>
	<path class="st11" d="M2681,1100.3h160c11,0,20,9,20,20v280c0,11-9,20-20,20h-160c-11,0-20-9-20-20v-280
		C2661,1109.3,2670,1100.3,2681,1100.3z"/>
	
		<ellipse transform="matrix(0.7071 -0.7071 0.7071 0.7071 -82.5408 2321.3862)" class="st0" cx="2760.9" cy="1260.3" rx="126.5" ry="63.2"/>
	<path class="st12" d="M2761,1195.3l10,10l-40,40c-10,10-10,30,0,40l20-20l40-40l10,10v-40H2761z"/>
	<path class="st12" d="M2761,1325.3l-10-10l40-40c10-10,10-30,0-40l-20,20l-40,40l-10-10v40H2761z"/>
	<path class="st3" d="M2691,1110.3l5,5l-20,20c-5,5-5,15,0,20l10-10l20-20l5,5v-20H2691z"/>
	<path class="st3" d="M2691,1175.3l-5-5l20-20c5-5,5-15,0-20l-10,10l-20,20l-5-5v20H2691z"/>
	<path class="st3" d="M2831,1345.3l5,5l-20,20c-5,5-5,15,0,20l10-10l20-20l5,5v-20H2831z"/>
	<path class="st3" d="M2831,1410.3l-5-5l20-20c5-5,5-15,0-20l-10,10l-20,20l-5-5v20H2831z"/>
	<path class="st0" d="M2921,1080.3h160c22.1,0,40,17.9,40,40v280c0,22.1-17.9,40-40,40h-160c-22.1,0-40-17.9-40-40v-280
		C2881,1098.2,2898.9,1080.3,2921,1080.3z"/>
	<path class="st11" d="M2921,1100.3h160c11,0,20,9,20,20v280c0,11-9,20-20,20h-160c-11,0-20-9-20-20v-280
		C2901,1109.3,2910,1100.3,2921,1100.3z"/>
	<path class="st0" d="M3061,1160.3c-88.4,0-160,71.6-160,160c0,22.1,17.9,40,40,40c88.4,0,160-71.6,160-160
		C3101,1178.2,3083.1,1160.3,3061,1160.3L3061,1160.3z"/>
	<path class="st0" d="M2973.9,1230.3h40c5.5,0,8.8,4,7.4,9l-20.6,71.9c-1.4,5-7.1,9-12.6,9h-40c-5.5,0-8.8-4-7.4-9l20.6-71.9
		C2962.7,1234.3,2968.3,1230.3,2973.9,1230.3z"/>
	<path class="st11" d="M2981,1240.3h20c5.5,0,8.8,4,7.4,9l-14.8,51.9c-1.4,5-7.1,9-12.6,9h-20c-5.5,0-8.8-4-7.4-9l14.8-51.9
		C2969.8,1244.3,2975.5,1240.3,2981,1240.3z"/>
	<path class="st0" d="M3013.9,1200.3h40c5.5,0,8.8,4,7.4,9l-20.6,71.9c-1.4,5-7.1,9-12.6,9h-40c-5.5,0-8.8-4-7.4-9l20.6-71.9
		C3002.7,1204.3,3008.3,1200.3,3013.9,1200.3z"/>
	<path class="st11" d="M3021,1210.3h20c5.5,0,8.8,4,7.4,9l-14.8,51.9c-1.4,5-7.1,9-12.6,9h-20c-5.5,0-8.8-4-7.4-9l14.8-51.9
		C3009.8,1214.3,3015.5,1210.3,3021,1210.3z"/>
	<polygon class="st0" points="2915,1130.3 2915,1140.3 2905,1140.3 2905,1150.3 2915,1150.3 2915,1160.3 2925,1160.3 2925,1150.3 
		2935,1150.3 2935,1140.3 2925,1140.3 2925,1130.3 	"/>
	<path class="st3" d="M2961,1110.3c-11.1,0-20,8.9-20,20v2h10v-2c0-5.5,4.5-10,10-10s10,4.5,10,10c0,2.3-1.9,6.7-3.8,8.2
		c-10.6,8.3-10.5,7-26.2,17.8v14h20h20v-10v-4h-10v4h-10h-8c12.4-8.7,13.3-8.5,23-17.2c3.1-2.8,5-8.3,5-12.8
		C2981,1119.2,2972.1,1110.3,2961,1110.3z"/>
	<polygon class="st0" points="3087,1390.3 3087,1380.3 3097,1380.3 3097,1370.3 3087,1370.3 3087,1360.3 3077,1360.3 3077,1370.3 
		3067,1370.3 3067,1380.3 3077,1380.3 3077,1390.3 	"/>
	<path class="st3" d="M3041,1410.3c11.1,0,20-8.9,20-20v-2h-10v2c0,5.5-4.5,10-10,10s-10-4.5-10-10c0-2.3,1.9-6.7,3.8-8.2
		c10.6-8.3,10.5-7,26.2-17.8v-14h-20h-20v10v4h10v-4h10h8c-12.4,8.7-13.3,8.5-23,17.2c-3.1,2.8-5,8.3-5,12.8
		C3021,1401.4,3029.9,1410.3,3041,1410.3z"/>
	<path class="st0" d="M2921,720.3h160c22.1,0,40,17.9,40,40v280c0,22.1-17.9,40-40,40h-160c-22.1,0-40-17.9-40-40v-280
		C2881,738.2,2898.9,720.3,2921,720.3z"/>
	<path class="st7" d="M2921,740.3h160c11,0,20,9,20,20v280c0,11-9,20-20,20h-160c-11,0-20-9-20-20v-280
		C2901,749.3,2910,740.3,2921,740.3z"/>
	
		<ellipse transform="matrix(0.7071 -0.7071 0.7071 0.7071 242.3091 2385.6487)" class="st0" cx="3000.9" cy="900.3" rx="126.5" ry="63.2"/>
	<path class="st0" d="M2973.9,870.3h40c5.5,0,8.8,4,7.4,9l-20.6,71.9c-1.4,5-7.1,9-12.6,9h-40c-5.5,0-8.8-4-7.4-9l20.6-71.9
		C2962.7,874.3,2968.3,870.3,2973.9,870.3z"/>
	<path class="st7" d="M2981,880.3h20c5.5,0,8.8,4,7.4,9l-14.8,51.9c-1.4,5-7.1,9-12.6,9h-20c-5.5,0-8.8-4-7.4-9l14.8-51.9
		C2969.8,884.3,2975.5,880.3,2981,880.3z"/>
	<path class="st0" d="M3013.9,840.3h40c5.5,0,8.8,4,7.4,9l-20.6,71.9c-1.4,5-7.1,9-12.6,9h-40c-5.5,0-8.8-4-7.4-9l20.6-71.9
		C3002.7,844.3,3008.3,840.3,3013.9,840.3z"/>
	<path class="st7" d="M3021,850.3h20c5.5,0,8.8,4,7.4,9l-14.8,51.9c-1.4,5-7.1,9-12.6,9h-20c-5.5,0-8.8-4-7.4-9l14.8-51.9
		C3009.8,854.3,3015.5,850.3,3021,850.3z"/>
	<polygon class="st0" points="2915,770.3 2915,780.3 2905,780.3 2905,790.3 2915,790.3 2915,800.3 2925,800.3 2925,790.3 
		2935,790.3 2935,780.3 2925,780.3 2925,770.3 	"/>
	<path class="st3" d="M2961,750.3c-11.1,0-20,8.9-20,20v2h10v-2c0-5.5,4.5-10,10-10s10,4.5,10,10c0,2.3-1.9,6.7-3.8,8.2
		c-10.6,8.3-10.5,7-26.2,17.8v14h20h20v-10v-4h-10v4h-10h-8c12.4-8.7,13.3-8.5,23-17.2c3.1-2.8,5-8.3,5-12.8
		C2981,759.2,2972.1,750.3,2961,750.3z"/>
	<polygon class="st0" points="3087,1030.3 3087,1020.3 3097,1020.3 3097,1010.3 3087,1010.3 3087,1000.3 3077,1000.3 3077,1010.3 
		3067,1010.3 3067,1020.3 3077,1020.3 3077,1030.3 	"/>
	<path class="st3" d="M3041,1050.3c11.1,0,20-8.9,20-20v-2h-10v2c0,5.5-4.5,10-10,10s-10-4.5-10-10c0-2.3,1.9-6.7,3.8-8.2
		c10.6-8.3,10.5-7,26.2-17.8v-14h-20h-20v10v4h10v-4h10h8c-12.4,8.7-13.3,8.5-23,17.2c-3.1,2.8-5,8.3-5,12.8
		C3021,1041.4,3029.9,1050.3,3041,1050.3z"/>
	<path class="st0" d="M2921,360.3h160c22.1,0,40,17.9,40,40v280c0,22.1-17.9,40-40,40h-160c-22.1,0-40-17.9-40-40v-280
		C2881,378.2,2898.9,360.3,2921,360.3z"/>
	<path class="st6" d="M2921,380.3h160c11,0,20,9,20,20v280c0,11-9,20-20,20h-160c-11,0-20-9-20-20v-280
		C2901,389.3,2910,380.3,2921,380.3z"/>
	
		<ellipse transform="matrix(0.7071 -0.7071 0.7071 0.7071 496.8647 2280.2073)" class="st0" cx="3000.9" cy="540.3" rx="126.5" ry="63.2"/>
	<path class="st0" d="M2973.9,510.3h40c5.5,0,8.8,4,7.4,9l-20.6,71.9c-1.4,5-7.1,9-12.6,9h-40c-5.5,0-8.8-4-7.4-9l20.6-71.9
		C2962.7,514.3,2968.3,510.3,2973.9,510.3z"/>
	<path class="st6" d="M2981,520.3h20c5.5,0,8.8,4,7.4,9l-14.8,51.9c-1.4,5-7.1,9-12.6,9h-20c-5.5,0-8.8-4-7.4-9l14.8-51.9
		C2969.8,524.3,2975.5,520.3,2981,520.3z"/>
	<path class="st0" d="M3013.9,480.3h40c5.5,0,8.8,4,7.4,9l-20.6,71.9c-1.4,5-7.1,9-12.6,9h-40c-5.5,0-8.8-4-7.4-9l20.6-71.9
		C3002.7,484.3,3008.3,480.3,3013.9,480.3z"/>
	<path class="st6" d="M3021,490.3h20c5.5,0,8.8,4,7.4,9l-14.8,51.9c-1.4,5-7.1,9-12.6,9h-20c-5.5,0-8.8-4-7.4-9l14.8-51.9
		C3009.8,494.3,3015.5,490.3,3021,490.3z"/>
	<polygon class="st0" points="2915,410.3 2915,420.3 2905,420.3 2905,430.3 2915,430.3 2915,440.3 2925,440.3 2925,430.3 
		2935,430.3 2935,420.3 2925,420.3 2925,410.3 	"/>
	<path class="st3" d="M2961,390.3c-11.1,0-20,8.9-20,20v2h10v-2c0-5.5,4.5-10,10-10s10,4.5,10,10c0,2.3-1.9,6.7-3.8,8.2
		c-10.6,8.3-10.5,7-26.2,17.8v14h20h20v-10v-4h-10v4h-10h-8c12.4-8.7,13.3-8.5,23-17.2c3.1-2.8,5-8.3,5-12.8
		C2981,399.2,2972.1,390.3,2961,390.3z"/>
	<polygon class="st0" points="3087,670.3 3087,660.3 3097,660.3 3097,650.3 3087,650.3 3087,640.3 3077,640.3 3077,650.3 
		3067,650.3 3067,660.3 3077,660.3 3077,670.3 	"/>
	<path class="st3" d="M3041,690.3c11.1,0,20-8.9,20-20v-2h-10v2c0,5.5-4.5,10-10,10s-10-4.5-10-10c0-2.3,1.9-6.7,3.8-8.2
		c10.6-8.3,10.5-7,26.2-17.8v-14h-20h-20v10v4h10v-4h10h8c-12.4,8.7-13.3,8.5-23,17.2c-3.1,2.8-5,8.3-5,12.8
		C3021,681.4,3029.9,690.3,3041,690.3z"/>
	<path class="st0" d="M2921,0.3h160c22.1,0,40,17.9,40,40v280c0,22.1-17.9,40-40,40h-160c-22.1,0-40-17.9-40-40v-280
		C2881,18.2,2898.9,0.3,2921,0.3z"/>
	<path class="st1" d="M2921,20.3h160c11,0,20,9,20,20v280c0,11-9,20-20,20h-160c-11,0-20-9-20-20v-280
		C2901,29.3,2910,20.3,2921,20.3z"/>
	
		<ellipse transform="matrix(0.7071 -0.7071 0.7071 0.7071 751.4203 2174.7659)" class="st0" cx="3000.9" cy="180.3" rx="126.5" ry="63.2"/>
	<path class="st0" d="M2973.9,150.3h40c5.5,0,8.8,4,7.4,9l-20.6,71.9c-1.4,5-7.1,9-12.6,9h-40c-5.5,0-8.8-4-7.4-9l20.6-71.9
		C2962.7,154.3,2968.3,150.3,2973.9,150.3z"/>
	<path class="st1" d="M2981,160.3h20c5.5,0,8.8,4,7.4,9l-14.8,51.9c-1.4,5-7.1,9-12.6,9h-20c-5.5,0-8.8-4-7.4-9l14.8-51.9
		C2969.8,164.3,2975.5,160.3,2981,160.3z"/>
	<path class="st0" d="M3013.9,120.3h40c5.5,0,8.8,4,7.4,9l-20.6,71.9c-1.4,5-7.1,9-12.6,9h-40c-5.5,0-8.8-4-7.4-9l20.6-71.9
		C3002.7,124.3,3008.3,120.3,3013.9,120.3z"/>
	<path class="st1" d="M3021,130.3h20c5.5,0,8.8,4,7.4,9l-14.8,51.9c-1.4,5-7.1,9-12.6,9h-20c-5.5,0-8.8-4-7.4-9l14.8-51.9
		C3009.8,134.3,3015.5,130.3,3021,130.3z"/>
	<polygon class="st0" points="2915,50.3 2915,60.3 2905,60.3 2905,70.3 2915,70.3 2915,80.3 2925,80.3 2925,70.3 2935,70.3 
		2935,60.3 2925,60.3 2925,50.3 	"/>
	<path class="st3" d="M2961,30.3c-11.1,0-20,8.9-20,20v2h10v-2c0-5.5,4.5-10,10-10s10,4.5,10,10c0,2.3-1.9,6.7-3.8,8.2
		c-10.6,8.3-10.5,7-26.2,17.8v14h20h20v-10v-4h-10v4h-10h-8c12.4-8.7,13.3-8.5,23-17.2c3.1-2.8,5-8.3,5-12.8
		C2981,39.2,2972.1,30.3,2961,30.3z"/>
	<polygon class="st0" points="3087,310.3 3087,300.3 3097,300.3 3097,290.3 3087,290.3 3087,280.3 3077,280.3 3077,290.3 
		3067,290.3 3067,300.3 3077,300.3 3077,310.3 	"/>
	<path class="st3" d="M3041,330.3c11.1,0,20-8.9,20-20v-2h-10v2c0,5.5-4.5,10-10,10s-10-4.5-10-10c0-2.3,1.9-6.7,3.8-8.2
		c10.6-8.3,10.5-7,26.2-17.8v-14h-20h-20v10v4h10v-4h10h8c-12.4,8.7-13.3,8.5-23,17.2c-3.1,2.8-5,8.3-5,12.8
		C3021,321.4,3029.9,330.3,3041,330.3z"/>
	<path class="st0" d="M281,1440.3h160c22.1,0,40,17.9,40,40v280c0,22.1-17.9,40-40,40H281c-22.1,0-40-17.9-40-40v-280
		C241,1458.2,258.8,1440.3,281,1440.3z"/>
	<path class="st4" d="M281,1460.3h160c11,0,20,9,20,20v280c0,11-9,20-20,20H281c-11,0-20-9-20-20v-280
		C261,1469.3,270,1460.3,281,1460.3z"/>
	
		<ellipse transform="matrix(0.7071 -0.7071 0.7071 0.7071 -1040.0642 729.715)" class="st0" cx="360.8" cy="1620.3" rx="126.5" ry="63.2"/>
	<path class="st6" d="M272.8,1620.3c-7.5,18.5-11.8,38.8-11.8,60c0,22.1,17.9,40,40,40l60-100H272.8z"/>
	<path class="st13" d="M361,1620.3l-60,100c67.1,0,124.5-41.4,148.2-100H361z"/>
	<path class="st1" d="M421,1520.3c-67.1,0-124.5,41.4-148.2,100H361L421,1520.3z"/>
	<path class="st5" d="M421,1520.3l-60,100h88.2c7.5-18.5,11.8-38.8,11.8-60C461,1538.2,443.1,1520.3,421,1520.3z"/>
	<path class="st6" d="M273.8,1495.3c-1.9,4.6-2.9,9.7-2.9,15c0,5.5,4.5,10,10,10l15-25H273.8z"/>
	<path class="st13" d="M296,1495.3l-15,25c16.8,0,31.1-10.3,37.1-25H296z"/>
	<path class="st1" d="M311,1470.3c-16.8,0-31.1,10.3-37.1,25H296L311,1470.3z"/>
	<path class="st5" d="M311,1470.3l-15,25h22.1c1.9-4.6,2.9-9.7,2.9-15C321,1474.8,316.4,1470.3,311,1470.3z"/>
	<path class="st6" d="M403.8,1745.3c-1.9,4.6-2.9,9.7-2.9,15c0,5.5,4.5,10,10,10l15-25H403.8z"/>
	<path class="st13" d="M426,1745.3l-15,25c16.8,0,31.1-10.3,37.1-25H426z"/>
	<path class="st1" d="M441,1720.3c-16.8,0-31.1,10.3-37.1,25H426L441,1720.3z"/>
	<path class="st5" d="M441,1720.3l-15,25h22.1c1.9-4.6,2.9-9.7,2.9-15C451,1724.8,446.4,1720.3,441,1720.3z"/>
	<path class="st0" d="M281,1440.3h160c22.1,0,40,17.9,40,40v280c0,22.1-17.9,40-40,40H281c-22.1,0-40-17.9-40-40v-280
		C241,1458.2,258.8,1440.3,281,1440.3z"/>
	<path class="st4" d="M281,1460.3h160c11,0,20,9,20,20v280c0,11-9,20-20,20H281c-11,0-20-9-20-20v-280
		C261,1469.3,270,1460.3,281,1460.3z"/>
	
		<ellipse transform="matrix(0.7071 -0.7071 0.7071 0.7071 -1040.0642 729.715)" class="st0" cx="360.8" cy="1620.3" rx="126.5" ry="63.2"/>
	<path class="st6" d="M272.8,1620.3c-7.5,18.5-11.8,38.8-11.8,60c0,22.1,17.9,40,40,40l60-100H272.8z"/>
	<path class="st13" d="M361,1620.3l-60,100c67.1,0,124.5-41.4,148.2-100H361z"/>
	<path class="st1" d="M421,1520.3c-67.1,0-124.5,41.4-148.2,100H361L421,1520.3z"/>
	<path class="st5" d="M421,1520.3l-60,100h88.2c7.5-18.5,11.8-38.8,11.8-60C461,1538.2,443.1,1520.3,421,1520.3z"/>
	<path class="st6" d="M273.8,1495.3c-1.9,4.6-2.9,9.7-2.9,15c0,5.5,4.5,10,10,10l15-25H273.8z"/>
	<path class="st13" d="M296,1495.3l-15,25c16.8,0,31.1-10.3,37.1-25H296z"/>
	<path class="st1" d="M311,1470.3c-16.8,0-31.1,10.3-37.1,25H296L311,1470.3z"/>
	<path class="st5" d="M311,1470.3l-15,25h22.1c1.9-4.6,2.9-9.7,2.9-15C321,1474.8,316.4,1470.3,311,1470.3z"/>
	<path class="st6" d="M403.8,1745.3c-1.9,4.6-2.9,9.7-2.9,15c0,5.5,4.5,10,10,10l15-25H403.8z"/>
	<path class="st13" d="M426,1745.3l-15,25c16.8,0,31.1-10.3,37.1-25H426z"/>
	<path class="st1" d="M441,1720.3c-16.8,0-31.1,10.3-37.1,25H426L441,1720.3z"/>
	<path class="st5" d="M441,1720.3l-15,25h22.1c1.9-4.6,2.9-9.7,2.9-15C451,1724.8,446.4,1720.3,441,1720.3z"/>
	<path class="st0" d="M3161,0.3h160c22.1,0,40,17.9,40,40v280c0,22.1-17.9,40-40,40h-160c-22.1,0-40-17.9-40-40v-280
		C3121,18.2,3138.9,0.3,3161,0.3z"/>
	<path class="st4" d="M281,1460.3h160c11,0,20,9,20,20v280c0,11-9,20-20,20H281c-11,0-20-9-20-20v-280
		C261,1469.3,270,1460.3,281,1460.3z"/>
	
		<ellipse transform="matrix(0.7071 -0.7071 0.7071 0.7071 -1040.0642 729.715)" class="st0" cx="360.8" cy="1620.3" rx="126.5" ry="63.2"/>
	<path class="st6" d="M287.3,1621.3c-9.7,17.9-46,89.3,16.5,94.4l56.7-94.4H287.3z"/>
	<path class="st13" d="M360.6,1621.3l-56.7,94.4c53.6-12.7,95.1-48.4,128.8-94.4H360.6z"/>
	<path class="st1" d="M418.3,1524.9c-47.7,9.3-89.2,37.8-130.9,96.3h73.1L418.3,1524.9z"/>
	<path class="st5" d="M418.3,1524.9l-57.8,96.3h72.2C444.6,1604.4,480.6,1530.2,418.3,1524.9z"/>
	<path class="st6" d="M273.8,1495.3c-1.9,4.6-2.9,9.7-2.9,15c0,5.5,4.5,10,10,10l15-25H273.8z"/>
	<path class="st13" d="M296,1495.3l-15,25c16.8,0,31.1-10.3,37.1-25H296z"/>
	<path class="st1" d="M311,1470.3c-16.8,0-31.1,10.3-37.1,25H296L311,1470.3z"/>
	<path class="st5" d="M311,1470.3l-15,25h22.1c1.9-4.6,2.9-9.7,2.9-15C321,1474.8,316.4,1470.3,311,1470.3z"/>
	<path class="st6" d="M403.8,1745.3c-1.9,4.6-2.9,9.7-2.9,15c0,5.5,4.5,10,10,10l15-25H403.8z"/>
	<path class="st13" d="M426,1745.3l-15,25c16.8,0,31.1-10.3,37.1-25H426z"/>
	<path class="st1" d="M441,1720.3c-16.8,0-31.1,10.3-37.1,25H426L441,1720.3z"/>
	<path class="st5" d="M441,1720.3l-15,25h22.1c1.9-4.6,2.9-9.7,2.9-15C451,1724.8,446.4,1720.3,441,1720.3z"/>
	<g id="g44" transform="matrix(3.0565629,0,0,3.0565629,-659.9919,-1017.7417)">
		<path id="path4" class="st14" d="M246.5,840.3c8.9-4.7,18.4-5.7,26.2-3.9c17.8,4.2,19.2,17.6,9.7,31.4
			c-4.3,6.3-10.7,12.4-18.5,16.2c-12.7,6.3-24.8,6.6-32.8,1.8s-9.9-13-7.1-21.7C227,855.1,235.2,845.9,246.5,840.3L246.5,840.3z"/>
		<path id="path6" class="st3" d="M270.1,854.2L270.1,854.2c0,0.4,0,0.8,0,1.2c0.1,0.5,0.2,0.9,0.3,1.4c0.2,0.7,0.6,1.2,1,1.7
			c0.3,0.5,0.8,0.8,1.2,1.1c0.6,0.2,1.1,0.4,1.6,0.3c0.4,0,0.7-0.1,0.9-0.3c0.1-0.1,0.2-0.3,0.3-0.6c0.1-0.4,0-0.9-0.1-1.5
			c0-0.2-0.1-0.3-0.1-0.5c0-0.1-0.1-0.3-0.1-0.5c-0.3-0.8-0.7-1.5-1.2-2.1c-0.5-0.5-1-0.8-1.6-1s-1.1-0.2-1.5,0
			c-0.2,0.1-0.5,0.3-0.6,0.6L270.1,854.2z M269.8,844.4c3.1-1.1,6.1-0.9,8.7,0.4c2.7,1.3,4.9,3.8,6,6.9c0.7,1.7,0.9,3.5,0.8,5.2
			s-0.6,3.4-1.4,4.9c0,0.1-0.1,0.2-0.2,0.3s-0.1,0.2-0.2,0.3c-1.2,2-2.5,3.5-3.8,4.6s-2.6,1.8-3.9,2.3c-3.2,1.2-6.3,0.9-8.9-0.3
			c-2.8-1.4-5-3.8-6.1-6.9c-0.6-1.7-0.9-3.4-0.9-5c0.1-1.7,0.5-3.3,1.2-4.7c0.6-1.1,1.4-2.4,2.6-3.6c1-1.1,2.2-2.1,3.6-3l0,0
			c0.3-0.2,0.7-0.5,1.1-0.7C269,844.7,269.4,844.5,269.8,844.4L269.8,844.4z"/>
		<path id="path8" class="st3" d="M255.4,850.1l5.3-2c0.5-0.2,1,0.1,1.2,0.6c0,0,0,0,0,0.1l7.5,20c0.1,0.1,0.1,0.2,0.1,0.4
			c0,0.3-0.1,0.6-0.3,0.7l-2.5,2.5c-0.1,0.1-0.2,0.2-0.3,0.2l-4.3,1.6c-0.3,0.1-0.6,0.1-0.8-0.1l0,0l-4.9-3.3l0.9,2.5
			c0.1,0.1,0.1,0.3,0.1,0.5s-0.1,0.5-0.3,0.6l-2.5,2.5c-0.1,0.1-0.2,0.2-0.3,0.2l0,0l-5.3,2c-0.5,0.2-1-0.1-1.2-0.6l-7.6-20.2
			c-0.1-0.4,0-0.8,0.3-1l2.4-2.4c0.1-0.1,0.2-0.2,0.3-0.2l4.6-1.7c0.3-0.1,0.6-0.1,0.8,0.1l0,0l4.5,2.9l-0.8-2.2
			c-0.1-0.3,0-0.7,0.2-1l2.4-2.5C255.2,850.2,255.3,850.1,255.4,850.1L255.4,850.1z"/>
		<path id="path10" class="st3" d="M237.5,883.2c-2.1,0.2-3.9-0.2-5.4-1.1c-2.1-1.2-3.7-3.4-4.7-6.2l-4.2-11.2c-0.1-0.4,0-0.8,0.3-1
			l2.4-2.4c0.1-0.1,0.2-0.2,0.3-0.2l0,0l5.3-2c0.5-0.2,1,0.1,1.2,0.6l4.3,11.4c0.2,0.7,0.6,1.3,1.1,1.7c0.3,0.3,0.8,0.5,1.4,0.6
			c0.1,0,0.2,0,0.3,0c0-0.2,0-0.4-0.1-0.6c-0.1-0.3-0.1-0.6-0.3-1l-4.3-11.4c-0.1-0.4,0-0.8,0.3-1l2.3-2.3c0.1-0.1,0.2-0.2,0.4-0.3
			l5.3-2c0.5-0.2,1,0.1,1.2,0.6l4.2,11.3c0.7,1.7,1,3.4,0.9,5c0,1.6-0.4,3-1.1,4.3c-0.6,1-1.7,2.1-2.8,3.2c-0.2,0.2-0.5,0.5-0.7,0.7
			l0,0c-0.4,0.5-0.9,0.9-1.4,1.2C241.8,882.1,239.7,882.9,237.5,883.2L237.5,883.2z"/>
		<polygon id="polygon12" class="st4" points="261.8,873.2 254.5,868.4 256.5,873.7 256.5,873.7 256.5,873.7 254,876.1 248.7,878.1 
			241.2,857.9 243.6,855.5 248.3,853.8 255.1,858.2 253.3,853.4 255.7,850.9 261,849 268.6,869.2 266.1,871.6 		"/>
		<path id="path14" class="st4" d="M270.2,845.3c5.8-2.1,11.5,1.1,13.6,6.7c1.2,3.2,1,6.7-0.5,9.4c-0.1,0.2-0.2,0.3-0.3,0.5
			c-2.4,4-4.9,5.6-7.2,6.5c-6,2.2-11.8-1.1-13.9-6.7c-1.2-3.2-1.1-6.3,0.3-9c1-2,3.1-4.5,5.8-6.3l0,0
			C268.6,845.9,269.4,845.5,270.2,845.3z M269.2,854L269.2,854c0.4-1.3,1.6-1.7,3.2-1.3s2.8,1.9,3.5,3.6c0.1,0.3,0.2,0.7,0.3,1.1
			c0.3,1.4,0.2,2.4-0.4,3c-0.7,0.7-2,0.7-3.4,0.1c-1.2-0.7-2.1-1.9-2.7-3.3C269.3,856.1,269.1,855,269.2,854L269.2,854z"/>
		<polygon id="polygon16" class="st4" points="252.5,863 256.5,873.7 251.2,875.7 243.6,855.5 248.3,853.8 259.6,861.1 255.7,850.9 
			261,849 268.6,869.2 264.2,870.8 		"/>
		<polygon id="polygon18" class="st0" points="251.1,861.2 255.6,873.3 251.6,874.8 244.5,855.9 248.2,854.5 260.9,862.9 
			256.6,851.4 260.6,849.9 267.7,868.8 264.3,870 		"/>
		<polygon id="polygon20" class="st15" points="257.3,851.6 260.3,850.5 267,868.5 264.4,869.5 250.1,860 255,873 251.9,874.1 
			245.2,856.2 248.1,855.1 261.9,864.1 		"/>
		<path id="path22" class="st4" d="M270.2,845.3c5.8-2.1,11.5,1.1,13.6,6.7c2.1,5.6-0.1,11.8-5.9,14c-5.8,2.1-11.5-1.1-13.6-6.7
			C262.2,853.6,264.4,847.4,270.2,845.3z M272.1,850.4c-2.9,1.1-3.4,4.1-2.4,6.8s3.3,4.6,6.3,3.5c2.9-1.1,3.4-4.1,2.4-6.8
			C277.3,851.2,275,849.3,272.1,850.4z"/>
		<path id="path24" class="st0" d="M270.4,845.9c5.4-2,10.7,1,12.7,6.3c1.9,5.2-0.1,11.1-5.5,13.1s-10.7-1.1-12.7-6.3
			C263,853.8,265,847.9,270.4,845.9z M271.9,849.7c-3.3,1.2-4,4.6-2.8,7.7c1.1,3.1,3.8,5.1,7.2,3.9c3.3-1.2,4-4.6,2.8-7.6
			C277.9,850.6,275.2,848.5,271.9,849.7z"/>
		<path id="path26" class="st15" d="M271.7,849.3c3.4-1.3,6.5,0.8,7.8,4.2s0.3,7-3.1,8.2s-6.5-0.8-7.8-4.2S268.3,850.5,271.7,849.3z
			 M270.6,846.4c5.1-1.9,10.2,0.9,12.1,6s-0.1,10.6-5.2,12.4c-5.1,1.9-10.2-0.9-12.1-6C263.5,853.7,265.5,848.2,270.6,846.4z"/>
		<path id="path28" class="st4" d="M236.9,882.3c-4.2,0.2-7.1-2.4-8.7-6.8l-4.2-11.2l2.4-2.5l5.3-2l4.3,11.4
			c0.6,1.5,1.6,2.7,3.3,2.8c0.5,0,1.1,0,1.3-0.7c0-0.7-0.1-1.5-0.4-2.1l-4.3-11.4l2.5-2.5l0,0l0,0l0,0l0,0l5.3-2l4.2,11.3
			c1.2,3.3,1.2,6.2-0.1,8.5c-0.6,1.1-2.1,2.4-3.4,3.7l0,0C242.5,881,239.6,882.2,236.9,882.3L236.9,882.3z"/>
		<path id="path30" class="st4" d="M243.9,878.6L243.9,878.6l-1.1,0.5h-0.1h-0.1l-1.1,0.4v-0.1c-5.3,1.4-8.9-1.4-10.8-6.5l-4.2-11.2
			l5.3-2l4.3,11.4c0.6,1.5,1.6,2.7,3.3,2.8c0.5,0,1-0.1,1.5-0.2c0.5-0.2,0.9-0.5,1.3-0.8c1.2-1.1,1.1-2.8,0.6-4.2l-4.3-11.4l5.3-2
			l4.2,11.3C249.8,871.9,248.8,876.2,243.9,878.6L243.9,878.6z"/>
		<path id="path32" class="st0" d="M243,878.3L243,878.3l-0.5,0.2h-0.1h-0.1l-0.5,0.2l0,0c-5.3,1.7-8.8-0.9-10.6-5.9l-3.9-10.5
			l4-1.5l4,10.7c0.7,1.7,1.9,3.2,3.9,3.3c0.6,0,1.2-0.1,1.7-0.3c0.6-0.2,1.1-0.5,1.5-0.9c1.4-1.4,1.4-3.3,0.8-5l-4-10.7l4-1.5
			l4,10.6C249.1,872,248.1,876.1,243,878.3L243,878.3z"/>
		<path id="path34" class="st15" d="M228,862.6l3.1-1.1l3.8,10.3c1.3,3.4,4,4.1,6.2,3.3c2.3-0.9,3.9-3.2,2.6-6.6l-3.8-10.3l3.1-1.1
			l3.8,10.2c1.5,4.1,1.5,8.5-4.4,10.8l0,0h-0.1h-0.1l0,0c-5.8,2.1-8.9-1.2-10.5-5.4L228,862.6z"/>
		<path id="path36" class="st16" d="M254.1,853.5l1.9-1.9l1.1,2.9l-1.9,1.9L254.1,853.5z M255.5,857.4l1.9-1.9l0.4,1.1l-1.9,1.9
			L255.5,857.4z"/>
		<path id="path38" class="st16" d="M236.7,860.1l1.9-1.9l1.1,2.9l-1.9,1.9L236.7,860.1z M238.1,863.9l1.9-1.9l0.4,1.1l-1.9,1.9
			L238.1,863.9z"/>
		<path id="path40" class="st16" d="M227.2,871l1.9-1.9l1.1,2.9l-1.9,1.9L227.2,871z M228.7,874.8l1.9-1.9l0,0l0.1,0.1
			c0.1,0.3,0.2,0.6,0.4,0.9l-1.9,1.9L228.7,874.8z"/>
		<path id="path42" class="st16" d="M274.5,853l1.9-1.9c0.7,0.6,1.3,1.4,1.7,2.3l-1.9,1.9C275.8,854.3,275.2,853.5,274.5,853z
			 M276.6,856.1l1.9-1.9c0.1,0.4,0.2,0.8,0.3,1.2l-1.8,1.8l0,0C276.9,856.9,276.7,856.5,276.6,856.1L276.6,856.1z"/>
	</g>
</g>
</svg>
